<svg version="1.1" id="Layer_1" xmlns="http://www.w3.org/2000/svg" xmlns:xlink="http://www.w3.org/1999/xlink" x="0px" y="0px"
	 width="100%" viewBox="0 0 2000 667" enable-background="new 0 0 2000 667" xml:space="preserve">
<path fill="#000000" opacity="1.000000" stroke="none" 
	d="
M1308.000000,668.000000 
	C872.000000,668.000000 436.500000,668.000000 1.000000,668.000000 
	C1.000000,445.666656 1.000000,223.333328 1.000000,1.000000 
	C667.666687,1.000000 1334.333374,1.000000 2001.000000,1.000000 
	C2001.000000,223.333328 2001.000000,445.666656 2001.000000,668.000000 
	C1770.166626,668.000000 1539.333374,668.000000 1308.000000,668.000000 
M682.298706,149.040176 
	C681.883118,148.991104 681.467529,148.942017 680.999695,148.163956 
	C678.650452,146.588043 676.500000,144.372971 673.911072,143.568039 
	C668.361328,141.842590 663.335510,139.683685 659.581055,134.983353 
	C658.708740,133.891312 656.828247,133.560501 655.366211,132.997375 
	C654.161804,132.533524 652.339172,132.639893 651.743042,131.809647 
	C649.057800,128.069763 644.543884,127.207207 641.063293,124.755135 
	C636.160645,121.301170 630.444336,119.002167 624.253357,115.971382 
	C620.542725,115.810097 621.058716,118.496056 621.055481,120.775642 
	C621.039856,131.916946 621.033203,143.058319 621.051575,154.199615 
	C621.086060,175.145523 621.139954,196.091400 621.035889,217.956955 
	C621.081665,228.283417 621.127380,238.609863 620.996216,249.866867 
	C621.058167,256.912476 621.120056,263.958099 621.035583,271.928833 
	C621.028809,296.149750 621.004822,320.370667 621.056152,344.591461 
	C621.059387,346.115723 621.650696,347.638733 622.144226,349.676208 
	C622.305908,349.757660 622.467529,349.839081 622.660339,349.888733 
	C622.660339,349.888733 622.624023,349.911041 622.843445,350.358215 
	C623.251770,350.529633 623.660095,350.701050 624.770752,350.716705 
	C628.854248,348.186676 632.937744,345.656647 637.746521,342.945557 
	C640.819153,341.299164 643.938904,339.734222 646.953674,337.988037 
	C651.993347,335.069031 656.965942,332.034271 662.691101,329.025879 
	C663.145508,328.386414 663.599915,327.746948 664.851685,327.020355 
	C665.809509,326.867493 666.924683,326.978821 667.699036,326.517822 
	C671.868530,324.035706 675.953369,321.411377 680.725281,318.759491 
	C681.758545,317.791931 682.791748,316.824402 684.245361,315.247650 
	C685.611511,314.789764 687.092102,314.534637 688.324158,313.839203 
	C693.954712,310.661224 699.515564,307.359741 705.846802,304.021790 
	C711.616333,300.687195 717.385925,297.352600 723.850952,293.973969 
	C728.163757,291.550812 732.501770,289.170807 736.773499,286.677338 
	C738.001282,285.960632 739.037842,284.916290 740.779663,283.989349 
	C741.389832,283.937622 741.999939,283.885864 742.634033,283.832123 
	C742.436951,283.174103 742.266357,282.604553 742.016479,282.008209 
	C742.016479,282.008209 741.994202,282.088959 742.805420,282.004547 
	C749.252869,280.987366 754.348572,277.689453 758.654907,272.592407 
	C758.654907,272.592407 758.797119,272.400635 758.949219,272.309784 
	C758.949219,272.309784 759.005859,272.141907 759.848267,272.024994 
	C762.895508,270.690948 766.101440,269.627594 768.951050,267.956543 
	C772.789856,265.705414 776.180664,262.668610 780.075989,260.540558 
	C786.233948,257.176392 792.651184,254.286774 799.644653,250.848068 
	C800.696045,250.246460 801.872498,249.790405 802.774597,249.015091 
	C805.175537,246.951767 809.675903,247.449936 810.791504,242.735138 
	C812.842102,241.822098 814.815491,240.450409 816.959106,240.089355 
	C821.753845,239.281723 825.226196,237.191177 826.786255,231.901382 
	C822.551208,228.793854 818.576477,224.518127 813.695007,222.760178 
	C810.283447,221.531601 807.293640,220.303528 804.282715,218.258606 
	C800.842957,215.922440 796.742371,214.559296 792.672668,212.267212 
	C791.984009,212.022598 791.295349,211.777985 790.525452,211.391479 
	C790.525452,211.391479 790.451172,211.245789 790.096069,210.701141 
	C788.349426,206.822815 784.433167,206.332336 780.825684,204.349884 
	C779.908203,203.871902 778.990784,203.393906 777.830994,202.348572 
	C776.936218,201.893066 776.041504,201.437576 774.802307,200.279449 
	C766.241760,195.483368 757.681213,190.687271 748.779663,185.236526 
	C746.201538,184.035843 743.615967,182.850800 741.046875,181.631088 
	C736.397949,179.423859 731.758850,177.195953 726.810181,174.356567 
	C725.595520,173.574860 724.380859,172.793152 722.879944,171.393066 
	C721.938293,170.911179 720.996582,170.429276 719.895325,169.447266 
	C719.616760,169.243042 719.338257,169.038803 718.707703,168.198929 
	C717.549744,167.716614 716.339905,167.330215 715.241882,166.736984 
	C705.506958,161.477539 695.791870,156.181427 685.808289,150.290756 
	C684.842407,149.922684 683.876465,149.554611 682.298706,149.040176 
M1519.123047,351.592651 
	C1522.000122,352.061737 1524.899414,353.034210 1527.750366,352.909210 
	C1537.863037,352.465729 1548.117798,352.522217 1558.016968,350.726044 
	C1567.973877,348.919434 1577.824829,345.773987 1587.265137,342.055084 
	C1601.321899,336.517548 1613.412598,327.554291 1624.241821,317.123199 
	C1633.446777,308.256378 1641.494019,298.323456 1646.980591,286.646973 
	C1650.562500,279.023987 1654.724365,271.435791 1656.692383,263.360626 
	C1658.586304,255.589798 1660.423828,247.738159 1660.650635,239.309586 
	C1660.875610,230.944443 1658.989990,222.472183 1660.823853,214.064819 
	C1661.205811,212.313080 1658.700317,210.094070 1658.637695,208.056213 
	C1658.261963,195.838898 1653.087280,185.081909 1647.649536,174.748367 
	C1643.021851,165.954498 1636.877075,157.787491 1630.435303,150.161026 
	C1621.359497,139.416183 1610.232178,130.800598 1597.847778,124.105591 
	C1592.720825,121.333992 1585.993286,120.957359 1581.650269,117.443871 
	C1576.073242,112.932236 1569.529541,113.219048 1563.552856,111.155571 
	C1558.749023,109.497070 1553.288452,109.840485 1548.182861,108.936745 
	C1534.849487,106.576561 1521.623047,108.013855 1508.718506,111.030266 
	C1502.539917,112.474487 1495.823486,112.773476 1490.268311,117.505928 
	C1486.874390,120.397247 1481.233032,120.464455 1477.013306,122.610657 
	C1467.789795,127.301941 1459.108276,132.887451 1451.936279,140.530167 
	C1445.762939,147.108551 1438.917847,153.167435 1433.504395,160.315308 
	C1428.543823,166.864990 1424.743408,174.386459 1421.065918,181.794464 
	C1414.070435,195.886032 1411.167725,211.030853 1411.056030,226.693741 
	C1411.023560,231.264481 1412.942993,236.228989 1411.697632,240.322418 
	C1409.814697,246.512070 1412.689697,251.592056 1413.734375,256.931030 
	C1415.437134,265.632477 1418.801025,273.867920 1422.709229,282.028778 
	C1428.430786,293.976288 1435.546265,304.810486 1444.752563,314.003387 
	C1457.327759,326.560364 1471.332886,337.076355 1488.443359,343.501862 
	C1498.476440,347.269531 1508.251709,350.569061 1519.123047,351.592651 
M1194.893555,295.974792 
	C1191.456421,294.652466 1187.875854,293.612183 1184.610596,291.951904 
	C1176.684082,287.921570 1168.566284,284.114746 1161.175659,279.233337 
	C1155.585938,275.541321 1151.000488,270.328735 1145.020264,264.938538 
	C1135.807373,281.075317 1126.882446,296.707764 1117.515137,313.114990 
	C1125.759033,319.306580 1133.666748,325.983246 1142.291626,331.548523 
	C1154.829224,339.638519 1168.534668,345.465851 1183.085938,348.952606 
	C1189.143555,350.404083 1195.375977,351.560272 1201.578125,351.872406 
	C1211.204590,352.356873 1220.875610,352.126373 1230.521606,351.917633 
	C1232.826660,351.867767 1235.324219,349.757843 1237.361816,350.222809 
	C1245.976562,352.188477 1253.578003,348.255005 1261.154175,345.950531 
	C1268.796509,343.625916 1275.850342,339.072754 1282.833496,334.940887 
	C1293.989502,328.340057 1302.011719,318.501282 1307.770508,307.165619 
	C1312.214966,298.417145 1313.787354,288.594025 1313.920776,278.741882 
	C1313.984497,274.038452 1312.474976,269.240204 1312.994385,264.633301 
	C1313.820312,257.307800 1310.626709,251.274170 1307.635864,245.384750 
	C1303.572754,237.384277 1297.404419,231.107834 1290.312622,225.207901 
	C1282.223022,218.477844 1273.299683,214.350449 1263.724365,211.012421 
	C1258.642212,209.240723 1253.048584,208.641418 1248.296631,206.282471 
	C1240.028809,202.178085 1231.133789,201.005402 1222.383667,198.906418 
	C1212.584595,196.555801 1202.841553,193.819855 1193.334229,190.505280 
	C1190.744019,189.602234 1188.686768,186.253403 1187.103394,183.598572 
	C1184.827515,179.782806 1185.576050,175.367294 1188.131592,172.218582 
	C1190.695435,169.059723 1194.167725,165.728958 1197.882446,164.620209 
	C1203.900024,162.824219 1210.425659,162.311798 1216.764648,162.103561 
	C1227.994995,161.734634 1239.236206,162.735138 1249.598999,167.361542 
	C1256.861572,170.603851 1263.663086,174.917160 1270.529297,178.990295 
	C1273.567993,180.792847 1276.257080,183.184586 1279.811157,185.835739 
	C1288.250854,170.867752 1296.455811,156.409912 1304.476318,141.850494 
	C1304.941895,141.005386 1304.264160,139.065659 1303.520874,138.091049 
	C1295.942749,128.153870 1285.151123,122.379433 1273.963135,118.318581 
	C1262.875854,114.294258 1250.914307,112.686668 1239.345825,109.978226 
	C1226.817505,107.045120 1214.194946,107.924942 1201.576294,109.036880 
	C1198.354004,109.320831 1195.033569,109.595581 1191.990845,110.587990 
	C1185.508179,112.702431 1179.249634,115.503349 1172.768677,117.623886 
	C1162.958740,120.833626 1154.997192,126.893242 1147.772095,133.855438 
	C1136.679688,144.544189 1130.151855,157.861984 1127.059204,172.892227 
	C1126.897949,173.676315 1126.767090,174.905014 1127.197144,175.299103 
	C1129.458252,177.371475 1127.638062,178.363647 1126.754883,180.263504 
	C1125.782593,182.355026 1126.635986,185.368607 1126.942871,187.950974 
	C1127.098633,189.261658 1128.578979,191.082245 1128.130371,191.689377 
	C1125.172974,195.691498 1128.107178,199.169952 1129.166626,202.474274 
	C1130.944946,208.020920 1132.865479,213.907440 1136.317749,218.438309 
	C1141.071899,224.677887 1147.117188,229.996902 1152.955444,235.331360 
	C1160.191284,241.942749 1169.477539,245.098083 1178.268677,248.854843 
	C1186.022095,252.168137 1194.529663,253.362335 1202.622192,255.842163 
	C1210.432983,258.235657 1218.611328,259.502991 1226.685425,260.943787 
	C1234.476318,262.334045 1241.845215,264.365112 1248.689819,268.717438 
	C1252.890503,271.388580 1255.947632,275.255341 1255.582031,279.183411 
	C1255.175415,283.553833 1252.725586,289.311920 1249.279297,291.512299 
	C1240.546875,297.088013 1230.344360,299.202301 1219.802490,299.055054 
	C1216.903076,299.014557 1213.998779,299.697906 1211.087280,299.931152 
	C1210.142944,300.006775 1209.138550,299.814972 1208.213013,299.559265 
	C1204.049438,298.409058 1199.904297,297.191925 1194.893555,295.974792 
M397.501221,129.000488 
	C387.695831,135.108490 378.710541,142.244446 371.388702,151.205521 
	C366.323456,157.404785 361.275696,163.728455 357.163300,170.563980 
	C353.344391,176.911621 350.279755,183.834747 347.788666,190.827133 
	C345.003876,198.643814 343.160126,206.803619 341.098724,214.863159 
	C340.708771,216.387817 341.314880,218.143753 341.286835,219.790009 
	C341.245758,222.200287 340.998291,224.606506 340.930664,227.017044 
	C340.874847,229.007126 340.802948,231.016571 341.009369,232.989059 
	C341.252838,235.315918 342.070068,237.607422 342.109558,239.923279 
	C342.142426,241.846298 340.865417,243.860764 341.130066,245.696091 
	C341.651703,249.313919 342.712280,252.874771 343.788300,256.386169 
	C344.877045,259.939026 346.976562,263.324402 347.370850,266.921539 
	C348.620514,278.322876 355.309906,287.147247 361.044281,296.261108 
	C366.677124,305.213531 373.188416,313.644562 382.194489,319.840118 
	C388.532898,324.200531 393.996124,329.884827 400.491211,333.954956 
	C413.619354,342.181519 427.753357,348.191223 443.361877,349.979828 
	C445.777222,350.256622 448.276031,349.958069 450.651978,350.389587 
	C454.270782,351.046906 457.804626,352.799469 461.394836,352.858826 
	C469.300812,352.989532 477.139862,353.335815 485.056122,350.797394 
	C493.201477,348.185516 502.343994,348.515808 510.313934,345.568024 
	C519.840515,342.044495 529.013489,337.428406 537.527527,331.364624 
	C547.024109,324.601074 547.845337,324.317047 543.352966,313.832275 
	C543.287659,313.679779 543.182068,313.544464 543.118103,313.391541 
	C537.898376,300.906525 532.710266,288.408142 527.445862,275.941986 
	C525.802368,272.050262 523.298401,271.862762 520.394104,275.102600 
	C518.446533,277.275177 516.394653,279.381897 514.198364,281.299194 
	C504.828491,289.478851 494.387268,295.432159 481.785553,297.127228 
	C479.325897,297.458069 476.490967,300.405487 474.759918,299.736694 
	C469.480865,297.697174 464.182556,299.629395 458.785706,298.312683 
	C447.377930,295.529297 436.881073,291.726562 427.132141,284.886810 
	C412.268768,274.458771 405.716614,259.086914 400.234528,242.971664 
	C399.071014,239.551407 399.827545,235.401016 400.042236,231.606415 
	C400.390442,225.451706 401.431610,219.427475 402.637543,213.337433 
	C404.144775,205.725861 406.617767,198.597351 411.058746,192.798553 
	C422.287903,178.136032 435.777802,167.233414 455.173096,163.438629 
	C468.562012,160.819031 488.518433,163.569504 498.645905,168.497162 
	C506.742126,172.436523 514.313843,177.790833 520.054138,185.162476 
	C522.225037,187.950363 526.196350,187.780853 527.458618,185.039719 
	C528.920837,181.864395 530.440613,178.712753 531.804016,175.495178 
	C536.581421,164.220963 541.102295,152.832214 546.151367,141.682037 
	C547.957947,137.692383 546.426392,135.543213 543.722900,133.276550 
	C533.991516,125.117638 522.662354,119.803680 511.040649,115.063484 
	C506.651062,113.273071 501.746338,113.544739 497.289734,111.228020 
	C494.304169,109.676025 490.123962,110.630768 486.634369,109.804672 
	C469.062531,105.644928 451.828522,108.696243 434.657349,112.153214 
	C429.688354,113.153580 424.745178,114.911545 420.174500,117.118309 
	C412.702393,120.725914 405.545441,124.986359 397.501221,129.000488 
M956.500000,112.999954 
	C920.343445,112.999954 884.186829,113.019943 848.030334,112.970222 
	C844.255554,112.965034 841.968384,114.119202 841.982056,118.320396 
	C842.029114,132.816223 841.895508,147.313583 842.074463,161.807343 
	C842.118591,165.384125 843.559631,168.111511 848.167053,168.065094 
	C864.660767,167.898926 881.157227,167.994263 897.652649,168.010193 
	C899.075378,168.011566 900.497986,168.156448 902.000305,168.239044 
	C902.000305,170.510300 902.000305,172.336151 902.000305,174.162003 
	C902.000305,229.646606 902.037598,285.131287 901.932678,340.615692 
	C901.923889,345.268799 903.391052,347.139587 908.217407,347.075409 
	C923.543823,346.871521 938.874573,347.000244 954.203674,346.999878 
	C960.989380,346.999725 960.998291,346.999115 960.998596,340.130127 
	C961.001099,284.645508 961.000000,229.160919 961.000000,173.676315 
	C961.000000,171.895187 961.000000,170.114059 961.000000,168.000000 
	C979.240051,168.000000 997.029968,168.001144 1014.819885,167.999344 
	C1020.775085,167.998749 1021.984497,166.818954 1021.993469,160.822586 
	C1022.014160,146.993118 1021.895447,133.162384 1022.057251,119.334778 
	C1022.113159,114.557076 1020.082581,112.918022 1015.483521,112.947540 
	C996.156433,113.071594 976.827942,112.999954 956.500000,112.999954 
M511.999756,452.641174 
	C511.586487,448.896790 511.259277,445.140442 510.740417,441.410736 
	C509.892548,435.315247 508.621002,429.263489 508.080414,423.144531 
	C507.492401,416.488403 505.096771,414.000122 498.080627,413.999847 
	C491.249084,413.999573 484.414703,414.116699 477.587219,413.950134 
	C474.216705,413.867981 472.347443,415.781677 471.055725,418.309174 
	C467.237488,425.780182 465.245453,433.984558 461.398438,441.527832 
	C457.580750,449.013641 455.434509,457.336151 452.297302,465.188629 
	C447.978180,475.999451 443.400085,486.706604 438.966553,497.472015 
	C437.041595,502.146301 435.200409,506.855133 433.325562,511.537262 
	C431.267181,506.785034 429.117523,501.858337 426.998749,496.918396 
	C425.382111,493.149261 423.735138,489.390900 422.222778,485.579681 
	C417.704407,474.193054 413.362061,462.735229 408.729797,451.395569 
	C404.385223,440.760040 399.365387,430.382660 395.445312,419.599915 
	C393.826630,415.147522 391.417908,413.973328 387.388184,413.991638 
	C380.723389,414.021942 374.058319,413.982605 367.393494,414.006592 
	C363.636780,414.020111 360.397369,413.301727 360.383484,419.614685 
	C360.369934,425.781036 357.320099,431.890930 356.091522,438.121918 
	C355.277191,442.251862 356.119171,446.832367 354.756287,450.694794 
	C353.434357,454.441193 354.846649,458.160919 353.219543,461.933136 
	C351.757477,465.322632 352.537994,469.620575 351.945526,473.458557 
	C351.158569,478.556519 349.798828,483.568634 349.074951,488.672882 
	C348.640625,491.735565 349.085266,494.912231 348.887909,498.022003 
	C348.666412,501.512787 349.044403,505.405060 347.620605,508.386902 
	C343.589508,516.829590 344.571167,525.955444 343.032898,534.711182 
	C341.556580,543.114319 340.357391,551.566101 339.027802,559.995117 
	C338.272858,564.780884 337.500397,569.564026 336.663025,574.804138 
	C339.614685,575.246094 342.127380,575.899353 344.651733,575.948242 
	C352.146942,576.093262 359.646942,576.028503 367.144775,575.991028 
	C373.184845,575.960815 374.872864,574.064331 375.040619,567.952942 
	C375.165955,563.387146 374.925018,558.606812 376.218750,554.337646 
	C377.400024,550.439697 376.369354,546.603455 377.690308,542.609131 
	C379.579224,536.897278 379.314056,530.477234 380.003784,524.363647 
	C380.994354,515.583191 381.995575,506.803802 383.044250,498.030212 
	C383.234467,496.439270 383.733887,494.887695 383.986786,493.301361 
	C384.575012,489.611298 385.100006,485.911102 385.803040,481.191864 
	C390.230499,492.062836 394.155731,501.631561 398.021851,511.224121 
	C399.792572,515.617615 401.397858,520.077820 403.165649,524.472534 
	C405.950134,531.394775 408.850983,538.270447 411.622162,545.197937 
	C413.810394,550.668274 416.396423,556.049805 417.893524,561.711975 
	C421.273834,574.496582 422.834503,576.001404 435.748260,576.000061 
	C435.914886,576.000061 436.081482,576.000000 436.248108,576.000000 
	C442.637451,575.998840 444.343475,574.446472 446.064758,568.332703 
	C447.266510,564.064026 449.056366,559.957397 450.643524,555.801392 
	C454.102692,546.743408 457.522675,537.669189 461.109192,528.661560 
	C463.526642,522.590088 466.310791,516.664734 468.732941,510.594971 
	C471.632477,503.328918 474.287292,495.965515 477.121887,488.672974 
	C477.967682,486.497009 479.061371,484.417389 480.041504,482.293640 
	C480.317261,482.483643 480.593018,482.673615 480.868774,482.863586 
	C484.807739,513.480652 488.746704,544.097717 492.755096,575.254333 
	C495.588776,575.482239 498.804688,575.893616 502.028229,575.966064 
	C507.524017,576.089539 513.024597,575.991516 518.523132,576.001892 
	C530.470886,576.024353 529.944946,576.309082 527.856995,565.641296 
	C527.796509,565.332153 527.449524,565.073914 527.405090,564.767456 
	C526.267761,556.915588 525.143860,549.061707 524.037659,541.205444 
	C523.265991,535.725220 522.449707,530.249817 521.785950,524.756287 
	C520.796204,516.565308 519.953491,508.356689 518.969360,500.165100 
	C518.815552,498.884949 518.047302,497.677887 517.898132,496.398010 
	C517.070129,489.290771 516.510803,482.148865 515.539490,475.062683 
	C514.552979,467.865417 513.195068,460.719116 511.999756,452.641174 
M1623.947510,541.546509 
	C1624.299805,543.632080 1624.771606,545.705627 1624.983154,547.805298 
	C1625.781738,555.728455 1626.339722,563.679504 1627.322754,571.578430 
	C1627.684814,574.487183 1629.605835,576.157288 1633.003662,576.059998 
	C1639.997559,575.859619 1647.003296,576.098083 1654.000122,575.959839 
	C1657.660400,575.887512 1661.312500,575.399597 1665.513062,575.054565 
	C1664.915039,571.834717 1664.505127,569.452087 1664.024902,567.083679 
	C1663.312134,563.567993 1662.337769,560.091187 1661.856567,556.546082 
	C1661.075317,550.791748 1661.269409,544.808716 1659.722900,539.294983 
	C1658.940063,536.504395 1659.453491,533.968628 1658.943848,531.411743 
	C1657.049683,521.908142 1657.046509,511.973419 1654.518677,502.795990 
	C1652.337158,494.875641 1654.017822,486.759064 1650.885132,478.920441 
	C1648.706909,473.470581 1649.585449,466.818817 1648.924927,460.722748 
	C1648.818970,459.744415 1647.365234,458.897003 1647.294189,457.933105 
	C1647.124634,455.631683 1647.839478,453.217407 1647.429199,450.990234 
	C1646.150024,444.047424 1644.349731,437.200348 1643.081543,430.255920 
	C1642.382446,426.428192 1642.390991,422.474915 1641.995605,418.586884 
	C1641.647949,415.166199 1639.590332,413.919800 1636.257935,413.966736 
	C1628.759766,414.072296 1621.258301,413.945557 1613.760132,414.052826 
	C1612.494751,414.070892 1611.260986,414.886658 1609.975708,415.160736 
	C1604.959961,416.230286 1605.887695,420.997101 1604.448730,424.190277 
	C1601.118164,431.581909 1598.084839,439.109375 1595.014282,446.615906 
	C1591.630493,454.887848 1588.388794,463.218048 1584.995361,471.485931 
	C1581.727417,479.448517 1578.290771,487.341919 1575.031738,495.308044 
	C1572.929932,500.444977 1571.014648,505.658203 1568.728149,511.582489 
	C1566.585571,506.369659 1564.727539,502.041138 1563.019653,497.654175 
	C1559.201538,487.847290 1556.431519,477.478394 1551.422119,468.330902 
	C1545.950195,458.338562 1544.082520,446.938629 1537.465210,437.372528 
	C1533.916992,432.243286 1533.391602,425.105713 1530.855347,419.149811 
	C1529.947144,417.016815 1527.224976,414.365387 1525.181763,414.232025 
	C1516.718140,413.679657 1508.192139,413.842896 1499.702881,414.140717 
	C1498.115479,414.196411 1495.972778,415.743713 1495.194336,417.196472 
	C1494.202026,419.047821 1494.317017,421.500214 1493.989014,423.698608 
	C1492.652222,432.663208 1491.114868,441.605011 1490.073364,450.604065 
	C1489.342407,456.921234 1490.186157,463.537933 1488.683838,469.614685 
	C1487.262573,475.363464 1484.988403,480.480621 1485.910645,486.894470 
	C1486.573608,491.505554 1484.363647,496.654541 1482.939697,501.415344 
	C1479.860474,511.710144 1482.076172,522.785217 1478.104370,532.950867 
	C1477.711548,533.955933 1478.743164,535.517456 1479.185547,537.073669 
	C1476.861572,538.958618 1473.453857,562.379639 1474.622559,564.824951 
	C1473.696777,567.853577 1472.926147,571.001831 1473.308472,574.003296 
	C1473.420532,574.883301 1476.792725,575.854614 1478.696289,575.910339 
	C1486.189575,576.129272 1493.693115,576.000549 1501.192749,575.999939 
	C1509.292969,575.999268 1510.971069,574.002136 1509.573730,566.035583 
	C1509.476074,565.479065 1509.250732,564.882812 1509.359009,564.362000 
	C1510.541260,558.677795 1511.985352,553.039612 1512.941284,547.319214 
	C1513.880615,541.697449 1514.407104,536.002319 1514.987061,530.326233 
	C1515.432983,525.960693 1515.548218,521.559387 1516.054688,517.202393 
	C1516.539551,513.029358 1517.405396,508.902100 1517.985229,504.738220 
	C1519.025146,497.269684 1519.976074,489.788818 1520.997559,482.060974 
	C1522.261353,482.701019 1523.591675,483.056946 1523.594482,483.422913 
	C1523.655762,491.498291 1528.405273,497.947968 1531.051880,505.104950 
	C1534.019287,513.128845 1537.270630,521.049316 1540.482056,528.980957 
	C1543.707031,536.946350 1546.990601,544.888733 1550.333984,552.805176 
	C1552.427246,557.762085 1555.323608,562.477966 1556.711426,567.612366 
	C1558.948853,575.891541 1558.548706,575.999695 1566.195190,576.000061 
	C1568.528442,576.000183 1570.948242,576.385864 1573.169434,575.886841 
	C1575.216919,575.426819 1577.574585,574.453247 1578.853638,572.919983 
	C1580.668579,570.744324 1581.836914,567.934448 1582.903320,565.245544 
	C1587.602173,553.396973 1592.138306,541.483948 1596.786743,529.615295 
	C1599.807983,521.901367 1602.956299,514.237183 1605.983765,506.525665 
	C1609.169556,498.410706 1612.279297,490.265930 1615.929932,480.820526 
	C1616.803223,484.867462 1617.646851,487.612213 1617.959473,490.416138 
	C1619.834351,507.238464 1621.587036,524.074341 1623.947510,541.546509 
M803.974182,528.248596 
	C807.735413,518.319946 809.881226,507.965546 809.843506,497.435059 
	C809.806335,487.064056 809.597168,476.429291 805.187988,466.751770 
	C801.778748,459.268890 798.080383,451.737854 793.277283,445.123810 
	C789.051758,439.305176 783.604431,434.063538 777.794556,429.794800 
	C772.232666,425.708221 765.786438,422.327942 759.218933,420.245941 
	C752.553589,418.132965 746.102905,415.049591 738.260864,416.212708 
	C731.953430,417.148193 725.182922,414.296051 718.590881,414.116180 
	C704.611328,413.734619 690.614075,413.993927 676.624084,414.002716 
	C670.633240,414.006470 670.002686,414.645569 670.002197,420.721039 
	C669.998169,470.352142 670.076416,519.983582 669.883850,569.613953 
	C669.864258,574.672180 671.431641,576.125488 676.276855,576.078430 
	C695.760986,575.888855 715.252258,576.221191 734.731689,575.863525 
	C740.485413,575.757874 746.240540,574.169495 751.939941,572.993530 
	C762.695496,570.774353 772.045166,565.384888 780.645996,558.903870 
	C785.253784,555.431702 789.409607,551.071594 792.870300,546.440247 
	C796.945068,540.987183 800.046265,534.806702 803.974182,528.248596 
M927.469238,441.022400 
	C924.221619,449.265991 920.980042,457.511993 917.722656,465.751740 
	C916.815613,468.045990 916.321960,470.691559 914.840820,472.534851 
	C910.813110,477.547485 910.154480,483.930664 907.434326,489.492554 
	C901.778198,501.057739 897.372314,513.231873 892.381775,525.125977 
	C889.359985,532.328064 886.048645,539.411682 883.149780,546.661499 
	C879.432617,555.957825 875.999390,565.367737 872.400452,574.842773 
	C874.174255,575.192810 876.214600,575.916321 878.264526,575.944702 
	C887.427551,576.071411 896.593933,575.939453 905.757690,576.033020 
	C908.874084,576.064819 910.879517,574.970215 912.034363,571.961792 
	C915.491516,562.955872 919.091248,554.004578 922.591248,545.143433 
	C943.450012,545.143433 964.092957,545.143433 984.655212,545.143433 
	C986.905945,551.113647 989.127991,556.921326 991.276184,562.756165 
	C991.966675,564.631714 992.578247,566.552429 993.024536,568.498657 
	C994.130798,573.322632 997.473877,575.994080 1002.633789,575.998474 
	C1009.799011,576.004578 1016.966064,576.097961 1024.128662,575.959167 
	C1027.760742,575.888794 1031.384644,575.391602 1035.439209,575.051514 
	C1033.501221,570.389709 1031.955444,566.569763 1030.330933,562.783508 
	C1025.909912,552.478333 1021.368469,542.223755 1017.041931,531.879272 
	C1013.558838,523.551453 1010.417664,515.080872 1006.947754,506.747375 
	C1002.479919,496.017303 997.745483,485.398163 993.290283,474.662994 
	C988.103088,462.163849 983.071960,449.599609 978.018311,437.045441 
	C976.187439,432.497253 974.792847,427.748016 972.658447,423.353119 
	C969.161865,416.153442 968.550354,413.223602 959.341003,413.942352 
	C955.034729,414.278412 950.641663,414.362610 946.358521,413.902924 
	C941.591370,413.391327 938.726807,415.179688 936.943848,419.433502 
	C934.005554,426.443695 930.961914,433.409821 927.469238,441.022400 
M1410.628540,430.138153 
	C1409.416138,427.229492 1407.890137,424.407379 1407.059082,421.393585 
	C1405.494141,415.718781 1403.584717,413.749908 1397.832764,414.059662 
	C1389.237061,414.522552 1380.343506,412.077179 1373.080933,415.950134 
	C1351.105591,469.232849 1329.456055,521.725525 1307.614624,574.683289 
	C1309.621094,575.177063 1311.287720,575.924072 1312.962891,575.943848 
	C1322.622192,576.057678 1332.287231,575.846252 1341.942383,576.077087 
	C1345.680054,576.166382 1346.925171,574.022949 1347.962402,571.207581 
	C1350.815674,563.463013 1353.504272,555.649841 1356.672363,548.036255 
	C1357.264404,546.613525 1359.770874,545.146912 1361.409546,545.128845 
	C1379.895752,544.924683 1398.385254,544.958740 1416.872925,545.090393 
	C1418.125244,545.099243 1420.008789,546.105713 1420.506958,547.162781 
	C1422.877197,552.192261 1424.918335,557.380371 1426.976562,562.551819 
	C1428.088379,565.345581 1429.344482,568.151917 1429.915039,571.073730 
	C1430.658447,574.880798 1432.828857,576.052612 1436.368042,576.024048 
	C1445.361816,575.951416 1454.359009,576.112854 1463.349243,575.921082 
	C1465.624756,575.872559 1467.879395,574.852295 1470.308594,574.236694 
	C1465.322510,562.305298 1460.645630,551.156311 1456.004028,539.992615 
	C1452.648438,531.921692 1449.358154,523.823547 1446.004517,515.751770 
	C1442.834839,508.122803 1439.606812,500.518158 1436.428955,492.892578 
	C1433.310303,485.409027 1430.208130,477.918488 1427.125732,470.419952 
	C1423.934082,462.655792 1420.772095,454.879303 1417.601929,447.106293 
	C1415.388184,441.678223 1413.182251,436.246918 1410.628540,430.138153 
M608.500000,478.000000 
	C599.738770,478.000000 590.977539,478.000000 582.281067,478.000000 
	C582.281067,468.362579 582.281067,459.293640 582.281067,450.000000 
	C601.858398,450.000000 621.155640,450.000397 640.452820,449.999756 
	C647.182556,449.999542 648.997681,448.225525 648.999329,441.646240 
	C649.000977,434.983856 649.000122,428.321472 648.999634,421.659088 
	C648.999146,415.032349 647.980835,414.003906 641.306946,414.002533 
	C612.158997,413.996552 583.011108,413.998016 553.863159,414.001617 
	C547.646118,414.002380 547.001465,414.660461 547.001221,420.982147 
	C546.999146,470.450348 546.999817,519.918518 547.000122,569.386719 
	C547.000183,575.978149 547.001465,575.994934 553.548767,575.997009 
	C577.699890,576.004578 601.851013,576.000061 626.002136,576.000000 
	C631.998291,576.000000 637.995178,575.942322 643.990295,576.021362 
	C647.599426,576.068909 649.349121,574.822815 649.074402,570.839783 
	C648.754272,566.198181 648.999695,561.517578 648.999695,556.853943 
	C648.999695,543.000000 648.999695,543.000000 635.200928,543.000000 
	C617.593628,543.000000 599.986328,543.000000 582.203064,543.000000 
	C582.203064,532.187561 582.203064,521.787170 582.203064,511.000000 
	C583.689270,511.000000 584.978088,511.000000 586.266968,511.000000 
	C601.923584,510.999969 617.580139,510.996735 633.236755,511.003418 
	C635.597168,511.004425 638.058594,511.374329 638.023315,507.715088 
	C637.944702,499.554443 638.153564,491.388062 637.919861,483.233337 
	C637.831360,480.145569 636.368164,477.851776 632.483887,477.945526 
	C624.826660,478.130341 617.161743,478.000000 608.500000,478.000000 
M1302.000000,439.384033 
	C1302.000000,433.384979 1302.000732,427.385956 1301.999756,421.386902 
	C1301.998657,415.366364 1300.641968,414.005096 1294.527832,414.003448 
	C1265.198975,413.995636 1235.869873,414.049500 1206.541260,413.948364 
	C1201.958618,413.932587 1199.937378,415.513855 1199.945801,420.311615 
	C1200.034546,470.470551 1200.053589,520.629883 1199.906494,570.788513 
	C1199.893799,575.093323 1201.262695,576.103760 1205.340942,576.081970 
	C1234.169067,575.927673 1262.998413,576.026550 1291.827271,575.963989 
	C1295.165771,575.956726 1298.503174,575.454407 1302.000000,575.168640 
	C1302.000000,565.960632 1301.661255,557.458313 1302.125610,549.000061 
	C1302.408447,543.850037 1300.195312,542.920837 1295.824585,542.947754 
	C1276.328247,543.067993 1256.830811,543.004883 1237.333740,542.989929 
	C1235.912109,542.988831 1234.490479,542.843811 1233.349976,542.781189 
	C1233.349976,531.895264 1233.349976,521.487427 1233.349976,510.693939 
	C1252.438721,510.693939 1271.178711,510.693939 1289.998413,510.693939 
	C1289.998413,501.634033 1289.698608,492.958679 1290.112793,484.317566 
	C1290.354736,479.269135 1288.890259,477.775513 1283.757812,477.876343 
	C1266.978271,478.205963 1250.188354,478.000000 1233.202515,478.000000 
	C1233.202515,468.540863 1233.202515,459.470093 1233.202515,450.000031 
	C1235.008667,450.000031 1236.630249,450.000061 1238.251831,450.000061 
	C1256.249146,450.000061 1274.246338,450.000031 1292.243652,450.000000 
	C1300.834473,449.999969 1301.999512,448.847504 1302.000000,439.384033 
M1088.500122,413.999908 
	C1082.504150,413.999939 1076.502808,413.844452 1070.514282,414.056122 
	C1066.698486,414.190979 1063.768921,415.466919 1063.935059,420.343079 
	C1064.184204,427.662903 1063.994263,434.997559 1064.001831,442.325897 
	C1064.007690,447.940613 1066.074951,449.990997 1071.727051,449.998627 
	C1076.723633,450.005371 1081.720215,450.000061 1086.716797,450.000061 
	C1093.129517,450.000061 1099.542358,450.000061 1106.001587,450.000061 
	C1106.001587,457.047485 1106.001587,463.374512 1106.001587,469.701538 
	C1106.001587,503.345306 1106.021118,536.989136 1105.964111,570.632812 
	C1105.959595,573.273010 1106.005249,575.872314 1109.301025,575.922852 
	C1119.792236,576.083740 1130.287476,575.982483 1141.125000,575.982483 
	C1141.125000,533.090088 1141.125000,491.694366 1141.125000,450.000061 
	C1152.449219,450.000061 1163.408936,450.000427 1174.368652,449.999878 
	C1180.929565,449.999542 1181.989624,448.933685 1181.998047,442.279785 
	C1182.006836,435.284546 1182.014282,428.289276 1181.995605,421.294067 
	C1181.979980,415.469910 1180.545898,414.001068 1174.941895,414.000732 
	C1146.461304,413.998993 1117.980591,413.999908 1088.500122,413.999908 
M828.001648,530.500000 
	C828.001648,544.152527 828.095093,557.806091 827.936951,571.456787 
	C827.896729,574.930847 828.970398,576.274292 832.506958,576.056152 
	C836.487671,575.810730 840.502808,576.157288 844.489258,575.963684 
	C850.626953,575.665649 856.939270,577.155090 863.000061,574.468201 
	C863.000061,572.826172 863.000122,571.337341 863.000122,569.848450 
	C863.000122,520.566223 863.000732,471.284027 862.999207,422.001831 
	C862.999023,416.186462 860.845581,414.005157 855.106140,414.000885 
	C848.612854,413.996063 842.119629,413.999268 835.626343,413.999908 
	C828.935852,414.000580 828.004944,414.916351 828.003967,421.611938 
	C827.999023,457.574615 828.001648,493.537323 828.001648,530.500000 
z"/>
<path fill="#FFFFFF" opacity="1.000000" stroke="none" 
	d="
M1519.046021,351.169250 
	C1508.251709,350.569061 1498.476440,347.269531 1488.443359,343.501862 
	C1471.332886,337.076355 1457.327759,326.560364 1444.752563,314.003387 
	C1435.546265,304.810486 1428.430786,293.976288 1422.709229,282.028778 
	C1418.801025,273.867920 1415.437134,265.632477 1413.734375,256.931030 
	C1412.689697,251.592056 1409.814697,246.512070 1411.697632,240.322418 
	C1412.942993,236.228989 1411.023560,231.264481 1411.056030,226.693741 
	C1411.167725,211.030853 1414.070435,195.886032 1421.065918,181.794464 
	C1424.743408,174.386459 1428.543823,166.864990 1433.504395,160.315308 
	C1438.917847,153.167435 1445.762939,147.108551 1451.936279,140.530167 
	C1459.108276,132.887451 1467.789795,127.301941 1477.013306,122.610657 
	C1481.233032,120.464455 1486.874390,120.397247 1490.268311,117.505928 
	C1495.823486,112.773476 1502.539917,112.474487 1508.718506,111.030266 
	C1521.623047,108.013855 1534.849487,106.576561 1548.182861,108.936745 
	C1553.288452,109.840485 1558.749023,109.497070 1563.552856,111.155571 
	C1569.529541,113.219048 1576.073242,112.932236 1581.650269,117.443871 
	C1585.993286,120.957359 1592.720825,121.333992 1597.847778,124.105591 
	C1610.232178,130.800598 1621.359497,139.416183 1630.435303,150.161026 
	C1636.877075,157.787491 1643.021851,165.954498 1647.649536,174.748367 
	C1653.087280,185.081909 1658.261963,195.838898 1658.637695,208.056213 
	C1658.700317,210.094070 1661.205811,212.313080 1660.823853,214.064819 
	C1658.989990,222.472183 1660.875610,230.944443 1660.650635,239.309586 
	C1660.423828,247.738159 1658.586304,255.589798 1656.692383,263.360626 
	C1654.724365,271.435791 1650.562500,279.023987 1646.980591,286.646973 
	C1641.494019,298.323456 1633.446777,308.256378 1624.241821,317.123199 
	C1613.412598,327.554291 1601.321899,336.517548 1587.265137,342.055084 
	C1577.824829,345.773987 1567.973877,348.919434 1558.016968,350.726044 
	C1548.117798,352.522217 1537.863037,352.465729 1527.750366,352.909210 
	C1524.899414,353.034210 1522.000122,352.061737 1519.046021,351.169250 
M1556.839111,295.693237 
	C1561.275146,293.458740 1566.114502,291.770477 1570.053101,288.862244 
	C1576.020508,284.456055 1582.424805,279.984589 1586.733887,274.134277 
	C1594.311279,263.846405 1599.685181,252.467422 1601.335571,239.166824 
	C1602.699219,228.177704 1602.058594,217.505890 1598.519409,207.592438 
	C1593.727783,194.171387 1585.583252,182.315979 1573.445068,174.152069 
	C1567.654297,170.257263 1561.147339,167.369781 1554.784424,164.414200 
	C1552.521484,163.363098 1549.690186,163.607758 1547.178833,163.007339 
	C1536.343018,160.416580 1525.563477,161.994125 1515.398315,165.241577 
	C1503.454956,169.057190 1493.213257,176.315369 1485.310181,186.291000 
	C1482.238281,190.168350 1479.123291,194.265121 1477.233765,198.767960 
	C1474.125488,206.175293 1470.525513,213.579010 1470.513062,221.938019 
	C1470.501709,229.514069 1469.156128,237.407028 1470.850220,244.581375 
	C1472.726685,252.528046 1477.393188,259.814240 1480.830933,267.394348 
	C1485.993408,278.777679 1495.596924,286.298584 1505.954956,291.567871 
	C1515.622070,296.485718 1526.494995,300.153839 1538.040527,299.055420 
	C1539.867188,298.881592 1541.873779,299.945801 1543.606201,299.566132 
	C1547.816895,298.643341 1551.915161,297.207855 1556.839111,295.693237 
z"/>
<path fill="#FFFFFF" opacity="1.000000" stroke="none" 
	d="
M1195.322998,295.986816 
	C1199.904297,297.191925 1204.049438,298.409058 1208.213013,299.559265 
	C1209.138550,299.814972 1210.142944,300.006775 1211.087280,299.931152 
	C1213.998779,299.697906 1216.903076,299.014557 1219.802490,299.055054 
	C1230.344360,299.202301 1240.546875,297.088013 1249.279297,291.512299 
	C1252.725586,289.311920 1255.175415,283.553833 1255.582031,279.183411 
	C1255.947632,275.255341 1252.890503,271.388580 1248.689819,268.717438 
	C1241.845215,264.365112 1234.476318,262.334045 1226.685425,260.943787 
	C1218.611328,259.502991 1210.432983,258.235657 1202.622192,255.842163 
	C1194.529663,253.362335 1186.022095,252.168137 1178.268677,248.854843 
	C1169.477539,245.098083 1160.191284,241.942749 1152.955444,235.331360 
	C1147.117188,229.996902 1141.071899,224.677887 1136.317749,218.438309 
	C1132.865479,213.907440 1130.944946,208.020920 1129.166626,202.474274 
	C1128.107178,199.169952 1125.172974,195.691498 1128.130371,191.689377 
	C1128.578979,191.082245 1127.098633,189.261658 1126.942871,187.950974 
	C1126.635986,185.368607 1125.782593,182.355026 1126.754883,180.263504 
	C1127.638062,178.363647 1129.458252,177.371475 1127.197144,175.299103 
	C1126.767090,174.905014 1126.897949,173.676315 1127.059204,172.892227 
	C1130.151855,157.861984 1136.679688,144.544189 1147.772095,133.855438 
	C1154.997192,126.893242 1162.958740,120.833626 1172.768677,117.623886 
	C1179.249634,115.503349 1185.508179,112.702431 1191.990845,110.587990 
	C1195.033569,109.595581 1198.354004,109.320831 1201.576294,109.036880 
	C1214.194946,107.924942 1226.817505,107.045120 1239.345825,109.978226 
	C1250.914307,112.686668 1262.875854,114.294258 1273.963135,118.318581 
	C1285.151123,122.379433 1295.942749,128.153870 1303.520874,138.091049 
	C1304.264160,139.065659 1304.941895,141.005386 1304.476318,141.850494 
	C1296.455811,156.409912 1288.250854,170.867752 1279.811157,185.835739 
	C1276.257080,183.184586 1273.567993,180.792847 1270.529297,178.990295 
	C1263.663086,174.917160 1256.861572,170.603851 1249.598999,167.361542 
	C1239.236206,162.735138 1227.994995,161.734634 1216.764648,162.103561 
	C1210.425659,162.311798 1203.900024,162.824219 1197.882446,164.620209 
	C1194.167725,165.728958 1190.695435,169.059723 1188.131592,172.218582 
	C1185.576050,175.367294 1184.827515,179.782806 1187.103394,183.598572 
	C1188.686768,186.253403 1190.744019,189.602234 1193.334229,190.505280 
	C1202.841553,193.819855 1212.584595,196.555801 1222.383667,198.906418 
	C1231.133789,201.005402 1240.028809,202.178085 1248.296631,206.282471 
	C1253.048584,208.641418 1258.642212,209.240723 1263.724365,211.012421 
	C1273.299683,214.350449 1282.223022,218.477844 1290.312622,225.207901 
	C1297.404419,231.107834 1303.572754,237.384277 1307.635864,245.384750 
	C1310.626709,251.274170 1313.820312,257.307800 1312.994385,264.633301 
	C1312.474976,269.240204 1313.984497,274.038452 1313.920776,278.741882 
	C1313.787354,288.594025 1312.214966,298.417145 1307.770508,307.165619 
	C1302.011719,318.501282 1293.989502,328.340057 1282.833496,334.940887 
	C1275.850342,339.072754 1268.796509,343.625916 1261.154175,345.950531 
	C1253.578003,348.255005 1245.976562,352.188477 1237.361816,350.222809 
	C1235.324219,349.757843 1232.826660,351.867767 1230.521606,351.917633 
	C1220.875610,352.126373 1211.204590,352.356873 1201.578125,351.872406 
	C1195.375977,351.560272 1189.143555,350.404083 1183.085938,348.952606 
	C1168.534668,345.465851 1154.829224,339.638519 1142.291626,331.548523 
	C1133.666748,325.983246 1125.759033,319.306580 1117.515137,313.114990 
	C1126.882446,296.707764 1135.807373,281.075317 1145.020264,264.938538 
	C1151.000488,270.328735 1155.585938,275.541321 1161.175659,279.233337 
	C1168.566284,284.114746 1176.684082,287.921570 1184.610596,291.951904 
	C1187.875854,293.612183 1191.456421,294.652466 1195.322998,295.986816 
z"/>
<path fill="#FFFFFF" opacity="1.000000" stroke="none" 
	d="
M397.878357,128.985947 
	C405.545441,124.986359 412.702393,120.725914 420.174500,117.118309 
	C424.745178,114.911545 429.688354,113.153580 434.657349,112.153214 
	C451.828522,108.696243 469.062531,105.644928 486.634369,109.804672 
	C490.123962,110.630768 494.304169,109.676025 497.289734,111.228020 
	C501.746338,113.544739 506.651062,113.273071 511.040649,115.063484 
	C522.662354,119.803680 533.991516,125.117638 543.722900,133.276550 
	C546.426392,135.543213 547.957947,137.692383 546.151367,141.682037 
	C541.102295,152.832214 536.581421,164.220963 531.804016,175.495178 
	C530.440613,178.712753 528.920837,181.864395 527.458618,185.039719 
	C526.196350,187.780853 522.225037,187.950363 520.054138,185.162476 
	C514.313843,177.790833 506.742126,172.436523 498.645905,168.497162 
	C488.518433,163.569504 468.562012,160.819031 455.173096,163.438629 
	C435.777802,167.233414 422.287903,178.136032 411.058746,192.798553 
	C406.617767,198.597351 404.144775,205.725861 402.637543,213.337433 
	C401.431610,219.427475 400.390442,225.451706 400.042236,231.606415 
	C399.827545,235.401016 399.071014,239.551407 400.234528,242.971664 
	C405.716614,259.086914 412.268768,274.458771 427.132141,284.886810 
	C436.881073,291.726562 447.377930,295.529297 458.785706,298.312683 
	C464.182556,299.629395 469.480865,297.697174 474.759918,299.736694 
	C476.490967,300.405487 479.325897,297.458069 481.785553,297.127228 
	C494.387268,295.432159 504.828491,289.478851 514.198364,281.299194 
	C516.394653,279.381897 518.446533,277.275177 520.394104,275.102600 
	C523.298401,271.862762 525.802368,272.050262 527.445862,275.941986 
	C532.710266,288.408142 537.898376,300.906525 543.118103,313.391541 
	C543.182068,313.544464 543.287659,313.679779 543.352966,313.832275 
	C547.845337,324.317047 547.024109,324.601074 537.527527,331.364624 
	C529.013489,337.428406 519.840515,342.044495 510.313934,345.568024 
	C502.343994,348.515808 493.201477,348.185516 485.056122,350.797394 
	C477.139862,353.335815 469.300812,352.989532 461.394836,352.858826 
	C457.804626,352.799469 454.270782,351.046906 450.651978,350.389587 
	C448.276031,349.958069 445.777222,350.256622 443.361877,349.979828 
	C427.753357,348.191223 413.619354,342.181519 400.491211,333.954956 
	C393.996124,329.884827 388.532898,324.200531 382.194489,319.840118 
	C373.188416,313.644562 366.677124,305.213531 361.044281,296.261108 
	C355.309906,287.147247 348.620514,278.322876 347.370850,266.921539 
	C346.976562,263.324402 344.877045,259.939026 343.788300,256.386169 
	C342.712280,252.874771 341.651703,249.313919 341.130066,245.696091 
	C340.865417,243.860764 342.142426,241.846298 342.109558,239.923279 
	C342.070068,237.607422 341.252838,235.315918 341.009369,232.989059 
	C340.802948,231.016571 340.874847,229.007126 340.930664,227.017044 
	C340.998291,224.606506 341.245758,222.200287 341.286835,219.790009 
	C341.314880,218.143753 340.708771,216.387817 341.098724,214.863159 
	C343.160126,206.803619 345.003876,198.643814 347.788666,190.827133 
	C350.279755,183.834747 353.344391,176.911621 357.163300,170.563980 
	C361.275696,163.728455 366.323456,157.404785 371.388702,151.205521 
	C378.710541,142.244446 387.695831,135.108490 397.878357,128.985947 
z"/>
<path fill="#FFFFFF" opacity="1.000000" stroke="none" 
	d="
M957.000000,112.999954 
	C976.827942,112.999954 996.156433,113.071594 1015.483521,112.947540 
	C1020.082581,112.918022 1022.113159,114.557076 1022.057251,119.334778 
	C1021.895447,133.162384 1022.014160,146.993118 1021.993469,160.822586 
	C1021.984497,166.818954 1020.775085,167.998749 1014.819885,167.999344 
	C997.029968,168.001144 979.240051,168.000000 961.000000,168.000000 
	C961.000000,170.114059 961.000000,171.895187 961.000000,173.676315 
	C961.000000,229.160919 961.001099,284.645508 960.998596,340.130127 
	C960.998291,346.999115 960.989380,346.999725 954.203674,346.999878 
	C938.874573,347.000244 923.543823,346.871521 908.217407,347.075409 
	C903.391052,347.139587 901.923889,345.268799 901.932678,340.615692 
	C902.037598,285.131287 902.000305,229.646606 902.000305,174.162003 
	C902.000305,172.336151 902.000305,170.510300 902.000305,168.239044 
	C900.497986,168.156448 899.075378,168.011566 897.652649,168.010193 
	C881.157227,167.994263 864.660767,167.898926 848.167053,168.065094 
	C843.559631,168.111511 842.118591,165.384125 842.074463,161.807343 
	C841.895508,147.313583 842.029114,132.816223 841.982056,118.320396 
	C841.968384,114.119202 844.255554,112.965034 848.030334,112.970222 
	C884.186829,113.019943 920.343445,112.999954 957.000000,112.999954 
z"/>
<path fill="#FF7002" opacity="1.000000" stroke="none" 
	d="
M740.162048,284.022156 
	C739.037842,284.916290 738.001282,285.960632 736.773499,286.677338 
	C732.501770,289.170807 728.163757,291.550812 723.428345,293.671783 
	C722.702637,293.025818 722.199097,292.342834 722.125061,292.386566 
	C716.341492,295.804352 710.591614,299.279114 704.473328,302.802246 
	C696.402344,307.235840 688.697205,311.616699 681.049255,316.192719 
	C681.368408,316.253113 681.630432,316.118347 682.214172,315.957214 
	C682.965576,315.906158 683.395325,315.881500 683.825012,315.856842 
	C682.791748,316.824402 681.758545,317.791931 680.350952,318.449097 
	C679.334473,317.833038 678.433167,317.085724 678.088867,317.287720 
	C672.688904,320.455994 667.360718,323.746582 661.658447,327.061371 
	C653.528564,331.734589 645.756165,336.355469 637.616455,340.984406 
	C632.667175,343.214569 628.085205,345.436707 623.458496,347.213684 
	C623.327881,321.515411 623.242004,296.262329 623.202942,270.852570 
	C623.249756,270.695923 623.013000,270.470428 623.474182,270.384094 
	C662.791077,270.297760 701.646851,270.297760 740.556763,270.297760 
	C740.556763,263.024658 740.556763,256.623108 740.556763,249.806656 
	C730.784668,249.806656 721.327087,249.822678 711.869568,249.803680 
	C682.251099,249.744202 652.632629,249.671478 623.054688,249.161560 
	C623.089172,241.582077 622.981201,234.442978 623.118835,227.308624 
	C623.191345,223.548538 623.692749,219.796738 624.469360,216.036774 
	C663.487061,216.032349 702.035950,216.032349 740.583984,216.032349 
	C740.583984,208.750015 740.583984,202.331223 740.583984,195.391052 
	C738.499695,195.391052 736.707092,195.391052 734.914490,195.391052 
	C713.927307,195.391052 692.940063,195.419678 671.952942,195.381866 
	C655.634216,195.352463 639.315613,195.240234 623.023438,194.686401 
	C623.059143,170.479294 623.014160,146.750275 623.164551,123.022491 
	C623.178955,120.747498 624.409790,118.480209 625.075928,116.209335 
	C630.444336,119.002167 636.160645,121.301170 641.063293,124.755135 
	C644.543884,127.207207 649.057800,128.069763 651.743042,131.809647 
	C652.339172,132.639893 654.161804,132.533524 655.366211,132.997375 
	C656.828247,133.560501 658.708740,133.891312 659.581055,134.983353 
	C663.335510,139.683685 668.361328,141.842590 673.911072,143.568039 
	C676.500000,144.372971 678.650452,146.588043 681.052917,148.878799 
	C682.076538,150.057083 683.046997,150.520523 684.150513,151.297119 
	C694.892517,157.748886 705.482300,163.921478 716.162659,169.932983 
	C716.739502,170.257660 718.076538,169.231781 719.059692,168.834595 
	C719.338257,169.038803 719.616760,169.243042 719.942261,170.070343 
	C720.982361,171.475159 721.975403,172.256897 723.025635,173.191101 
	C723.185791,173.392059 723.288757,173.440536 723.391724,173.489029 
	C723.270874,173.318130 723.150085,173.147202 723.054260,172.733765 
	C723.079224,172.491226 723.166199,172.011459 723.166199,172.011444 
	C724.380859,172.793152 725.595520,173.574860 726.984497,175.007416 
	C734.005249,179.527328 740.851746,183.396393 747.825623,187.581940 
	C756.060059,192.616745 764.143616,197.376740 772.323914,201.964417 
	C772.900024,202.287506 774.189148,201.339157 775.146729,200.982056 
	C776.041504,201.437576 776.936218,201.893066 777.883362,202.718231 
	C777.935730,203.087875 777.799927,203.261307 777.514160,203.248474 
	C776.988892,203.544083 776.749390,203.852524 776.509888,204.160950 
	C777.343689,204.443222 778.177490,204.725494 779.006714,205.004639 
	C779.002197,205.001526 778.995239,204.995163 779.133728,205.306152 
	C782.998535,207.493347 786.724854,209.369568 790.451172,211.245789 
	C790.451172,211.245789 790.525452,211.391479 790.490356,211.738861 
	C791.279785,212.315262 792.104370,212.544312 792.928894,212.773346 
	C796.742371,214.559296 800.842957,215.922440 804.282715,218.258606 
	C807.293640,220.303528 810.283447,221.531601 813.695007,222.760178 
	C818.576477,224.518127 822.551208,228.793854 826.786255,231.901382 
	C825.226196,237.191177 821.753845,239.281723 816.959106,240.089355 
	C814.815491,240.450409 812.842102,241.822098 810.078796,242.876144 
	C805.984924,244.701050 802.544983,246.283508 799.282898,248.172882 
	C798.764893,248.472900 799.046692,250.153839 798.958679,251.196320 
	C792.651184,254.286774 786.233948,257.176392 780.075989,260.540558 
	C776.180664,262.668610 772.789856,265.705414 768.951050,267.956543 
	C766.101440,269.627594 762.895508,270.690948 759.319580,271.907684 
	C758.658081,271.773590 758.525208,271.756775 758.392334,271.739960 
	C758.527222,271.960205 758.662170,272.180420 758.797119,272.400635 
	C758.797119,272.400635 758.654907,272.592407 758.203674,272.466309 
	C752.499695,275.589783 747.246948,278.839386 741.994202,282.088989 
	C741.994202,282.088959 742.016479,282.008209 741.714783,281.985596 
	C740.996094,282.649414 740.579102,283.335785 740.162048,284.022156 
M736.350952,284.477753 
	C736.350952,284.477753 736.570129,284.590576 736.570129,284.590576 
	C736.570129,284.590576 736.530701,284.359772 736.350952,284.477753 
z"/>
<path fill="#FFFFFF" opacity="1.000000" stroke="none" 
	d="
M511.999756,453.095825 
	C513.195068,460.719116 514.552979,467.865417 515.539490,475.062683 
	C516.510803,482.148865 517.070129,489.290771 517.898132,496.398010 
	C518.047302,497.677887 518.815552,498.884949 518.969360,500.165100 
	C519.953491,508.356689 520.796204,516.565308 521.785950,524.756287 
	C522.449707,530.249817 523.265991,535.725220 524.037659,541.205444 
	C525.143860,549.061707 526.267761,556.915588 527.405090,564.767456 
	C527.449524,565.073914 527.796509,565.332153 527.856995,565.641296 
	C529.944946,576.309082 530.470886,576.024353 518.523132,576.001892 
	C513.024597,575.991516 507.524017,576.089539 502.028229,575.966064 
	C498.804688,575.893616 495.588776,575.482239 492.755096,575.254333 
	C488.746704,544.097717 484.807739,513.480652 480.868774,482.863586 
	C480.593018,482.673615 480.317261,482.483643 480.041504,482.293640 
	C479.061371,484.417389 477.967682,486.497009 477.121887,488.672974 
	C474.287292,495.965515 471.632477,503.328918 468.732941,510.594971 
	C466.310791,516.664734 463.526642,522.590088 461.109192,528.661560 
	C457.522675,537.669189 454.102692,546.743408 450.643524,555.801392 
	C449.056366,559.957397 447.266510,564.064026 446.064758,568.332703 
	C444.343475,574.446472 442.637451,575.998840 436.248108,576.000000 
	C436.081482,576.000000 435.914886,576.000061 435.748260,576.000061 
	C422.834503,576.001404 421.273834,574.496582 417.893524,561.711975 
	C416.396423,556.049805 413.810394,550.668274 411.622162,545.197937 
	C408.850983,538.270447 405.950134,531.394775 403.165649,524.472534 
	C401.397858,520.077820 399.792572,515.617615 398.021851,511.224121 
	C394.155731,501.631561 390.230499,492.062836 385.803040,481.191864 
	C385.100006,485.911102 384.575012,489.611298 383.986786,493.301361 
	C383.733887,494.887695 383.234467,496.439270 383.044250,498.030212 
	C381.995575,506.803802 380.994354,515.583191 380.003784,524.363647 
	C379.314056,530.477234 379.579224,536.897278 377.690308,542.609131 
	C376.369354,546.603455 377.400024,550.439697 376.218750,554.337646 
	C374.925018,558.606812 375.165955,563.387146 375.040619,567.952942 
	C374.872864,574.064331 373.184845,575.960815 367.144775,575.991028 
	C359.646942,576.028503 352.146942,576.093262 344.651733,575.948242 
	C342.127380,575.899353 339.614685,575.246094 336.663025,574.804138 
	C337.500397,569.564026 338.272858,564.780884 339.027802,559.995117 
	C340.357391,551.566101 341.556580,543.114319 343.032898,534.711182 
	C344.571167,525.955444 343.589508,516.829590 347.620605,508.386902 
	C349.044403,505.405060 348.666412,501.512787 348.887909,498.022003 
	C349.085266,494.912231 348.640625,491.735565 349.074951,488.672882 
	C349.798828,483.568634 351.158569,478.556519 351.945526,473.458557 
	C352.537994,469.620575 351.757477,465.322632 353.219543,461.933136 
	C354.846649,458.160919 353.434357,454.441193 354.756287,450.694794 
	C356.119171,446.832367 355.277191,442.251862 356.091522,438.121918 
	C357.320099,431.890930 360.369934,425.781036 360.383484,419.614685 
	C360.397369,413.301727 363.636780,414.020111 367.393494,414.006592 
	C374.058319,413.982605 380.723389,414.021942 387.388184,413.991638 
	C391.417908,413.973328 393.826630,415.147522 395.445312,419.599915 
	C399.365387,430.382660 404.385223,440.760040 408.729797,451.395569 
	C413.362061,462.735229 417.704407,474.193054 422.222778,485.579681 
	C423.735138,489.390900 425.382111,493.149261 426.998749,496.918396 
	C429.117523,501.858337 431.267181,506.785034 433.325562,511.537262 
	C435.200409,506.855133 437.041595,502.146301 438.966553,497.472015 
	C443.400085,486.706604 447.978180,475.999451 452.297302,465.188629 
	C455.434509,457.336151 457.580750,449.013641 461.398438,441.527832 
	C465.245453,433.984558 467.237488,425.780182 471.055725,418.309174 
	C472.347443,415.781677 474.216705,413.867981 477.587219,413.950134 
	C484.414703,414.116699 491.249084,413.999573 498.080627,413.999847 
	C505.096771,414.000122 507.492401,416.488403 508.080414,423.144531 
	C508.621002,429.263489 509.892548,435.315247 510.740417,441.410736 
	C511.259277,445.140442 511.586487,448.896790 511.999756,453.095825 
z"/>
<path fill="#FFFFFF" opacity="1.000000" stroke="none" 
	d="
M1623.664062,541.226074 
	C1621.587036,524.074341 1619.834351,507.238464 1617.959473,490.416138 
	C1617.646851,487.612213 1616.803223,484.867462 1615.929932,480.820526 
	C1612.279297,490.265930 1609.169556,498.410706 1605.983765,506.525665 
	C1602.956299,514.237183 1599.807983,521.901367 1596.786743,529.615295 
	C1592.138306,541.483948 1587.602173,553.396973 1582.903320,565.245544 
	C1581.836914,567.934448 1580.668579,570.744324 1578.853638,572.919983 
	C1577.574585,574.453247 1575.216919,575.426819 1573.169434,575.886841 
	C1570.948242,576.385864 1568.528442,576.000183 1566.195190,576.000061 
	C1558.548706,575.999695 1558.948853,575.891541 1556.711426,567.612366 
	C1555.323608,562.477966 1552.427246,557.762085 1550.333984,552.805176 
	C1546.990601,544.888733 1543.707031,536.946350 1540.482056,528.980957 
	C1537.270630,521.049316 1534.019287,513.128845 1531.051880,505.104950 
	C1528.405273,497.947968 1523.655762,491.498291 1523.594482,483.422913 
	C1523.591675,483.056946 1522.261353,482.701019 1520.997559,482.060974 
	C1519.976074,489.788818 1519.025146,497.269684 1517.985229,504.738220 
	C1517.405396,508.902100 1516.539551,513.029358 1516.054688,517.202393 
	C1515.548218,521.559387 1515.432983,525.960693 1514.987061,530.326233 
	C1514.407104,536.002319 1513.880615,541.697449 1512.941284,547.319214 
	C1511.985352,553.039612 1510.541260,558.677795 1509.359009,564.362000 
	C1509.250732,564.882812 1509.476074,565.479065 1509.573730,566.035583 
	C1510.971069,574.002136 1509.292969,575.999268 1501.192749,575.999939 
	C1493.693115,576.000549 1486.189575,576.129272 1478.696289,575.910339 
	C1476.792725,575.854614 1473.420532,574.883301 1473.308472,574.003296 
	C1472.926147,571.001831 1473.696777,567.853577 1474.622559,564.824951 
	C1473.453857,562.379639 1476.861572,538.958618 1479.185547,537.073669 
	C1478.743164,535.517456 1477.711548,533.955933 1478.104370,532.950867 
	C1482.076172,522.785217 1479.860474,511.710144 1482.939697,501.415344 
	C1484.363647,496.654541 1486.573608,491.505554 1485.910645,486.894470 
	C1484.988403,480.480621 1487.262573,475.363464 1488.683838,469.614685 
	C1490.186157,463.537933 1489.342407,456.921234 1490.073364,450.604065 
	C1491.114868,441.605011 1492.652222,432.663208 1493.989014,423.698608 
	C1494.317017,421.500214 1494.202026,419.047821 1495.194336,417.196472 
	C1495.972778,415.743713 1498.115479,414.196411 1499.702881,414.140717 
	C1508.192139,413.842896 1516.718140,413.679657 1525.181763,414.232025 
	C1527.224976,414.365387 1529.947144,417.016815 1530.855347,419.149811 
	C1533.391602,425.105713 1533.916992,432.243286 1537.465210,437.372528 
	C1544.082520,446.938629 1545.950195,458.338562 1551.422119,468.330902 
	C1556.431519,477.478394 1559.201538,487.847290 1563.019653,497.654175 
	C1564.727539,502.041138 1566.585571,506.369659 1568.728149,511.582489 
	C1571.014648,505.658203 1572.929932,500.444977 1575.031738,495.308044 
	C1578.290771,487.341919 1581.727417,479.448517 1584.995361,471.485931 
	C1588.388794,463.218048 1591.630493,454.887848 1595.014282,446.615906 
	C1598.084839,439.109375 1601.118164,431.581909 1604.448730,424.190277 
	C1605.887695,420.997101 1604.959961,416.230286 1609.975708,415.160736 
	C1611.260986,414.886658 1612.494751,414.070892 1613.760132,414.052826 
	C1621.258301,413.945557 1628.759766,414.072296 1636.257935,413.966736 
	C1639.590332,413.919800 1641.647949,415.166199 1641.995605,418.586884 
	C1642.390991,422.474915 1642.382446,426.428192 1643.081543,430.255920 
	C1644.349731,437.200348 1646.150024,444.047424 1647.429199,450.990234 
	C1647.839478,453.217407 1647.124634,455.631683 1647.294189,457.933105 
	C1647.365234,458.897003 1648.818970,459.744415 1648.924927,460.722748 
	C1649.585449,466.818817 1648.706909,473.470581 1650.885132,478.920441 
	C1654.017822,486.759064 1652.337158,494.875641 1654.518677,502.795990 
	C1657.046509,511.973419 1657.049683,521.908142 1658.943848,531.411743 
	C1659.453491,533.968628 1658.940063,536.504395 1659.722900,539.294983 
	C1661.269409,544.808716 1661.075317,550.791748 1661.856567,556.546082 
	C1662.337769,560.091187 1663.312134,563.567993 1664.024902,567.083679 
	C1664.505127,569.452087 1664.915039,571.834717 1665.513062,575.054565 
	C1661.312500,575.399597 1657.660400,575.887512 1654.000122,575.959839 
	C1647.003296,576.098083 1639.997559,575.859619 1633.003662,576.059998 
	C1629.605835,576.157288 1627.684814,574.487183 1627.322754,571.578430 
	C1626.339722,563.679504 1625.781738,555.728455 1624.983154,547.805298 
	C1624.771606,545.705627 1624.299805,543.632080 1623.664062,541.226074 
z"/>
<path fill="#FFFFFF" opacity="1.000000" stroke="none" 
	d="
M803.771912,528.595093 
	C800.046265,534.806702 796.945068,540.987183 792.870300,546.440247 
	C789.409607,551.071594 785.253784,555.431702 780.645996,558.903870 
	C772.045166,565.384888 762.695496,570.774353 751.939941,572.993530 
	C746.240540,574.169495 740.485413,575.757874 734.731689,575.863525 
	C715.252258,576.221191 695.760986,575.888855 676.276855,576.078430 
	C671.431641,576.125488 669.864258,574.672180 669.883850,569.613953 
	C670.076416,519.983582 669.998169,470.352142 670.002197,420.721039 
	C670.002686,414.645569 670.633240,414.006470 676.624084,414.002716 
	C690.614075,413.993927 704.611328,413.734619 718.590881,414.116180 
	C725.182922,414.296051 731.953430,417.148193 738.260864,416.212708 
	C746.102905,415.049591 752.553589,418.132965 759.218933,420.245941 
	C765.786438,422.327942 772.232666,425.708221 777.794556,429.794800 
	C783.604431,434.063538 789.051758,439.305176 793.277283,445.123810 
	C798.080383,451.737854 801.778748,459.268890 805.187988,466.751770 
	C809.597168,476.429291 809.806335,487.064056 809.843506,497.435059 
	C809.881226,507.965546 807.735413,518.319946 803.771912,528.595093 
M773.006104,510.263031 
	C773.337463,508.700928 773.924805,507.143768 773.954834,505.575897 
	C774.069092,499.606079 774.594360,493.556488 773.835144,487.682892 
	C773.108215,482.059265 772.139587,475.889679 769.230469,471.240845 
	C762.356201,460.255615 753.007690,451.505157 739.155701,450.715302 
	C727.840332,450.070099 716.458862,450.583984 705.300354,450.583984 
	C705.300354,481.393585 705.300354,512.103638 705.300354,543.741516 
	C717.589661,542.806274 729.567017,542.377930 741.380310,540.755371 
	C746.035583,540.115967 750.560791,537.196716 754.732178,534.641357 
	C763.705200,529.144409 769.220276,520.752319 773.006104,510.263031 
z"/>
<path fill="#FFFFFF" opacity="1.000000" stroke="none" 
	d="
M927.715942,440.708435 
	C930.961914,433.409821 934.005554,426.443695 936.943848,419.433502 
	C938.726807,415.179688 941.591370,413.391327 946.358521,413.902924 
	C950.641663,414.362610 955.034729,414.278412 959.341003,413.942352 
	C968.550354,413.223602 969.161865,416.153442 972.658447,423.353119 
	C974.792847,427.748016 976.187439,432.497253 978.018311,437.045441 
	C983.071960,449.599609 988.103088,462.163849 993.290283,474.662994 
	C997.745483,485.398163 1002.479919,496.017303 1006.947754,506.747375 
	C1010.417664,515.080872 1013.558838,523.551453 1017.041931,531.879272 
	C1021.368469,542.223755 1025.909912,552.478333 1030.330933,562.783508 
	C1031.955444,566.569763 1033.501221,570.389709 1035.439209,575.051514 
	C1031.384644,575.391602 1027.760742,575.888794 1024.128662,575.959167 
	C1016.966064,576.097961 1009.799011,576.004578 1002.633789,575.998474 
	C997.473877,575.994080 994.130798,573.322632 993.024536,568.498657 
	C992.578247,566.552429 991.966675,564.631714 991.276184,562.756165 
	C989.127991,556.921326 986.905945,551.113647 984.655212,545.143433 
	C964.092957,545.143433 943.450012,545.143433 922.591248,545.143433 
	C919.091248,554.004578 915.491516,562.955872 912.034363,571.961792 
	C910.879517,574.970215 908.874084,576.064819 905.757690,576.033020 
	C896.593933,575.939453 887.427551,576.071411 878.264526,575.944702 
	C876.214600,575.916321 874.174255,575.192810 872.400452,574.842773 
	C875.999390,565.367737 879.432617,555.957825 883.149780,546.661499 
	C886.048645,539.411682 889.359985,532.328064 892.381775,525.125977 
	C897.372314,513.231873 901.778198,501.057739 907.434326,489.492554 
	C910.154480,483.930664 910.813110,477.547485 914.840820,472.534851 
	C916.321960,470.691559 916.815613,468.045990 917.722656,465.751740 
	C920.980042,457.511993 924.221619,449.265991 927.715942,440.708435 
M970.584412,511.996552 
	C970.785645,510.681824 971.538208,509.129303 971.091614,508.094086 
	C969.264099,503.858154 966.557190,499.950653 965.115356,495.609619 
	C961.797241,485.619324 958.610840,475.613861 953.256958,465.709412 
	C947.226868,481.374268 941.435059,496.419891 935.437622,511.999786 
	C947.470459,511.999786 958.602478,511.999786 970.584412,511.996552 
z"/>
<path fill="#FFFFFF" opacity="1.000000" stroke="none" 
	d="
M1410.800659,430.477600 
	C1413.182251,436.246918 1415.388184,441.678223 1417.601929,447.106293 
	C1420.772095,454.879303 1423.934082,462.655792 1427.125732,470.419952 
	C1430.208130,477.918488 1433.310303,485.409027 1436.428955,492.892578 
	C1439.606812,500.518158 1442.834839,508.122803 1446.004517,515.751770 
	C1449.358154,523.823547 1452.648438,531.921692 1456.004028,539.992615 
	C1460.645630,551.156311 1465.322510,562.305298 1470.308594,574.236694 
	C1467.879395,574.852295 1465.624756,575.872559 1463.349243,575.921082 
	C1454.359009,576.112854 1445.361816,575.951416 1436.368042,576.024048 
	C1432.828857,576.052612 1430.658447,574.880798 1429.915039,571.073730 
	C1429.344482,568.151917 1428.088379,565.345581 1426.976562,562.551819 
	C1424.918335,557.380371 1422.877197,552.192261 1420.506958,547.162781 
	C1420.008789,546.105713 1418.125244,545.099243 1416.872925,545.090393 
	C1398.385254,544.958740 1379.895752,544.924683 1361.409546,545.128845 
	C1359.770874,545.146912 1357.264404,546.613525 1356.672363,548.036255 
	C1353.504272,555.649841 1350.815674,563.463013 1347.962402,571.207581 
	C1346.925171,574.022949 1345.680054,576.166382 1341.942383,576.077087 
	C1332.287231,575.846252 1322.622192,576.057678 1312.962891,575.943848 
	C1311.287720,575.924072 1309.621094,575.177063 1307.614624,574.683289 
	C1329.456055,521.725525 1351.105591,469.232849 1373.080933,415.950134 
	C1380.343506,412.077179 1389.237061,414.522552 1397.832764,414.059662 
	C1403.584717,413.749908 1405.494141,415.718781 1407.059082,421.393585 
	C1407.890137,424.407379 1409.416138,427.229492 1410.800659,430.477600 
M1380.556641,511.999969 
	C1389.312134,511.999969 1398.067627,511.999969 1407.341919,511.999969 
	C1401.144409,496.251923 1395.173462,481.079773 1389.202515,465.907623 
	C1385.329468,473.808075 1382.822876,481.481018 1379.929077,489.004944 
	C1377.028687,496.545563 1373.742065,503.937561 1370.620361,511.405212 
	C1371.505127,511.749695 1371.800293,511.961334 1372.098145,511.965271 
	C1374.590942,511.998444 1377.084229,511.993500 1380.556641,511.999969 
z"/>
<path fill="#FFFFFF" opacity="1.000000" stroke="none" 
	d="
M609.000000,478.000000 
	C617.161743,478.000000 624.826660,478.130341 632.483887,477.945526 
	C636.368164,477.851776 637.831360,480.145569 637.919861,483.233337 
	C638.153564,491.388062 637.944702,499.554443 638.023315,507.715088 
	C638.058594,511.374329 635.597168,511.004425 633.236755,511.003418 
	C617.580139,510.996735 601.923584,510.999969 586.266968,511.000000 
	C584.978088,511.000000 583.689270,511.000000 582.203064,511.000000 
	C582.203064,521.787170 582.203064,532.187561 582.203064,543.000000 
	C599.986328,543.000000 617.593628,543.000000 635.200928,543.000000 
	C648.999695,543.000000 648.999695,543.000000 648.999695,556.853943 
	C648.999695,561.517578 648.754272,566.198181 649.074402,570.839783 
	C649.349121,574.822815 647.599426,576.068909 643.990295,576.021362 
	C637.995178,575.942322 631.998291,576.000000 626.002136,576.000000 
	C601.851013,576.000061 577.699890,576.004578 553.548767,575.997009 
	C547.001465,575.994934 547.000183,575.978149 547.000122,569.386719 
	C546.999817,519.918518 546.999146,470.450348 547.001221,420.982147 
	C547.001465,414.660461 547.646118,414.002380 553.863159,414.001617 
	C583.011108,413.998016 612.158997,413.996552 641.306946,414.002533 
	C647.980835,414.003906 648.999146,415.032349 648.999634,421.659088 
	C649.000122,428.321472 649.000977,434.983856 648.999329,441.646240 
	C648.997681,448.225525 647.182556,449.999542 640.452820,449.999756 
	C621.155640,450.000397 601.858398,450.000000 582.281067,450.000000 
	C582.281067,459.293640 582.281067,468.362579 582.281067,478.000000 
	C590.977539,478.000000 599.738770,478.000000 609.000000,478.000000 
z"/>
<path fill="#FFFFFF" opacity="1.000000" stroke="none" 
	d="
M1302.000000,439.866394 
	C1301.999512,448.847504 1300.834473,449.999969 1292.243652,450.000000 
	C1274.246338,450.000031 1256.249146,450.000061 1238.251831,450.000061 
	C1236.630249,450.000061 1235.008667,450.000031 1233.202515,450.000031 
	C1233.202515,459.470093 1233.202515,468.540863 1233.202515,478.000000 
	C1250.188354,478.000000 1266.978271,478.205963 1283.757812,477.876343 
	C1288.890259,477.775513 1290.354736,479.269135 1290.112793,484.317566 
	C1289.698608,492.958679 1289.998413,501.634033 1289.998413,510.693939 
	C1271.178711,510.693939 1252.438721,510.693939 1233.349976,510.693939 
	C1233.349976,521.487427 1233.349976,531.895264 1233.349976,542.781189 
	C1234.490479,542.843811 1235.912109,542.988831 1237.333740,542.989929 
	C1256.830811,543.004883 1276.328247,543.067993 1295.824585,542.947754 
	C1300.195312,542.920837 1302.408447,543.850037 1302.125610,549.000061 
	C1301.661255,557.458313 1302.000000,565.960632 1302.000000,575.168640 
	C1298.503174,575.454407 1295.165771,575.956726 1291.827271,575.963989 
	C1262.998413,576.026550 1234.169067,575.927673 1205.340942,576.081970 
	C1201.262695,576.103760 1199.893799,575.093323 1199.906494,570.788513 
	C1200.053589,520.629883 1200.034546,470.470551 1199.945801,420.311615 
	C1199.937378,415.513855 1201.958618,413.932587 1206.541260,413.948364 
	C1235.869873,414.049500 1265.198975,413.995636 1294.527832,414.003448 
	C1300.641968,414.005096 1301.998657,415.366364 1301.999756,421.386902 
	C1302.000732,427.385956 1302.000000,433.384979 1302.000000,439.866394 
z"/>
<path fill="#FFFFFF" opacity="1.000000" stroke="none" 
	d="
M1089.000000,413.999908 
	C1117.980591,413.999908 1146.461304,413.998993 1174.941895,414.000732 
	C1180.545898,414.001068 1181.979980,415.469910 1181.995605,421.294067 
	C1182.014282,428.289276 1182.006836,435.284546 1181.998047,442.279785 
	C1181.989624,448.933685 1180.929565,449.999542 1174.368652,449.999878 
	C1163.408936,450.000427 1152.449219,450.000061 1141.125000,450.000061 
	C1141.125000,491.694366 1141.125000,533.090088 1141.125000,575.982483 
	C1130.287476,575.982483 1119.792236,576.083740 1109.301025,575.922852 
	C1106.005249,575.872314 1105.959595,573.273010 1105.964111,570.632812 
	C1106.021118,536.989136 1106.001587,503.345306 1106.001587,469.701538 
	C1106.001587,463.374512 1106.001587,457.047485 1106.001587,450.000061 
	C1099.542358,450.000061 1093.129517,450.000061 1086.716797,450.000061 
	C1081.720215,450.000061 1076.723633,450.005371 1071.727051,449.998627 
	C1066.074951,449.990997 1064.007690,447.940613 1064.001831,442.325897 
	C1063.994263,434.997559 1064.184204,427.662903 1063.935059,420.343079 
	C1063.768921,415.466919 1066.698486,414.190979 1070.514282,414.056122 
	C1076.502808,413.844452 1082.504150,413.999939 1089.000000,413.999908 
z"/>
<path fill="#FFFFFF" opacity="1.000000" stroke="none" 
	d="
M828.001648,530.000000 
	C828.001648,493.537323 827.999023,457.574615 828.003967,421.611938 
	C828.004944,414.916351 828.935852,414.000580 835.626343,413.999908 
	C842.119629,413.999268 848.612854,413.996063 855.106140,414.000885 
	C860.845581,414.005157 862.999023,416.186462 862.999207,422.001831 
	C863.000732,471.284027 863.000122,520.566223 863.000122,569.848450 
	C863.000122,571.337341 863.000061,572.826172 863.000061,574.468201 
	C856.939270,577.155090 850.626953,575.665649 844.489258,575.963684 
	C840.502808,576.157288 836.487671,575.810730 832.506958,576.056152 
	C828.970398,576.274292 827.896729,574.930847 827.936951,571.456787 
	C828.095093,557.806091 828.001648,544.152527 828.001648,530.000000 
z"/>
<path fill="#FEB08E" opacity="1.000000" stroke="none" 
	d="
M624.664673,116.090363 
	C624.409790,118.480209 623.178955,120.747498 623.164551,123.022491 
	C623.014160,146.750275 623.059143,170.479294 623.031982,195.142654 
	C623.342834,202.731949 623.671692,209.386581 624.000549,216.041199 
	C623.692749,219.796738 623.191345,223.548538 623.118835,227.308624 
	C622.981201,234.442978 623.089172,241.582077 623.014587,249.657867 
	C622.960327,257.221161 622.986694,263.845795 623.013000,270.470428 
	C623.013000,270.470428 623.249756,270.695923 622.912476,270.857208 
	C622.382568,271.026642 622.189819,271.034821 621.793579,271.027771 
	C621.590088,271.012512 621.182007,271.003723 621.182007,271.003723 
	C621.120056,263.958099 621.058167,256.912476 621.351868,249.092712 
	C621.808228,242.252106 622.038086,236.184113 621.966248,230.119690 
	C621.914490,225.756424 621.460388,221.397919 621.185730,217.037292 
	C621.139954,196.091400 621.086060,175.145523 621.051575,154.199615 
	C621.033203,143.058319 621.039856,131.916946 621.055481,120.775642 
	C621.058716,118.496056 620.542725,115.810097 624.664673,116.090363 
z"/>
<path fill="#FF943F" opacity="1.000000" stroke="none" 
	d="
M718.883667,168.516754 
	C718.076538,169.231781 716.739502,170.257660 716.162659,169.932983 
	C705.482300,163.921478 694.892517,157.748886 684.142151,151.304993 
	C684.000610,150.999725 683.988159,151.017258 684.336670,151.015381 
	C685.147095,150.974380 685.609009,150.935257 686.070923,150.896149 
	C695.791870,156.181427 705.506958,161.477539 715.241882,166.736984 
	C716.339905,167.330215 717.549744,167.716614 718.883667,168.516754 
z"/>
<path fill="#FF9755" opacity="1.000000" stroke="none" 
	d="
M774.974487,200.630737 
	C774.189148,201.339157 772.900024,202.287506 772.323914,201.964417 
	C764.143616,197.376740 756.060059,192.616745 748.021484,187.306015 
	C748.433533,186.439468 748.777100,186.165329 749.120667,185.891174 
	C757.681213,190.687271 766.241760,195.483368 774.974487,200.630737 
z"/>
<path fill="#FF943F" opacity="1.000000" stroke="none" 
	d="
M637.983765,340.976318 
	C645.756165,336.355469 653.528564,331.734589 661.647095,327.056580 
	C661.993164,326.999481 661.989685,326.975372 661.965576,327.320251 
	C661.949951,328.126160 661.958374,328.587158 661.966797,329.048187 
	C656.965942,332.034271 651.993347,335.069031 646.953674,337.988037 
	C643.938904,339.734222 640.819153,341.299164 637.461792,342.750183 
	C637.446045,342.028625 637.714905,341.502472 637.983765,340.976318 
z"/>
<path fill="#FCB77F" opacity="1.000000" stroke="none" 
	d="
M621.997070,271.042999 
	C622.189819,271.034821 622.382568,271.026642 622.865723,271.013855 
	C623.242004,296.262329 623.327881,321.515411 623.355225,347.484161 
	C623.074219,348.773376 622.851746,349.346954 622.629211,349.920532 
	C622.467529,349.839081 622.305908,349.757660 622.071594,348.939575 
	C621.998352,322.482971 621.997681,296.762970 621.997070,271.042999 
z"/>
<path fill="#FF9F70" opacity="1.000000" stroke="none" 
	d="
M621.793579,271.027771 
	C621.997681,296.762970 621.998352,322.482971 621.983643,348.682617 
	C621.650696,347.638733 621.059387,346.115723 621.056152,344.591461 
	C621.004822,320.370667 621.028809,296.149750 621.108765,271.466278 
	C621.182007,271.003723 621.590088,271.012512 621.793579,271.027771 
z"/>
<path fill="#FF8B41" opacity="1.000000" stroke="none" 
	d="
M680.992126,315.997559 
	C688.697205,311.616699 696.402344,307.235840 704.541626,303.141083 
	C705.017639,303.652344 705.059509,303.877441 705.101440,304.102570 
	C699.515564,307.359741 693.954712,310.661224 688.324158,313.839203 
	C687.092102,314.534637 685.611511,314.789764 684.035156,315.552246 
	C683.395325,315.881500 682.965576,315.906158 681.989624,315.964417 
	C681.443359,315.998016 680.992126,315.997559 680.992126,315.997559 
z"/>
<path fill="#FF9A3B" opacity="1.000000" stroke="none" 
	d="
M705.474121,304.062195 
	C705.059509,303.877441 705.017639,303.652344 704.907471,303.088379 
	C710.591614,299.279114 716.341492,295.804352 722.125061,292.386566 
	C722.199097,292.342834 722.702637,293.025818 723.080566,293.693787 
	C717.385925,297.352600 711.616333,300.687195 705.474121,304.062195 
z"/>
<path fill="#FF8B41" opacity="1.000000" stroke="none" 
	d="
M748.950195,185.563843 
	C748.777100,186.165329 748.433533,186.439468 747.894043,186.989532 
	C740.851746,183.396393 734.005249,179.527328 727.137207,175.317474 
	C731.758850,177.195953 736.397949,179.423859 741.046875,181.631088 
	C743.615967,182.850800 746.201538,184.035843 748.950195,185.563843 
z"/>
<path fill="#FF904A" opacity="1.000000" stroke="none" 
	d="
M662.004578,327.004272 
	C667.360718,323.746582 672.688904,320.455994 678.088867,317.287720 
	C678.433167,317.085724 679.334473,317.833038 680.022034,318.487457 
	C675.953369,321.411377 671.868530,324.035706 667.699036,326.517822 
	C666.924683,326.978821 665.809509,326.867493 664.111023,327.023743 
	C662.910156,327.009918 662.449890,326.992645 661.989685,326.975372 
	C661.989685,326.975372 661.993164,326.999481 662.004578,327.004272 
z"/>
<path fill="#FF943F" opacity="1.000000" stroke="none" 
	d="
M742.399780,282.046753 
	C747.246948,278.839386 752.499695,275.589783 758.105347,272.533997 
	C754.348572,277.689453 749.252869,280.987366 742.399780,282.046753 
z"/>
<path fill="#FF9755" opacity="1.000000" stroke="none" 
	d="
M622.644775,349.904633 
	C622.851746,349.346954 623.074219,348.773376 623.400024,347.929321 
	C628.085205,345.436707 632.667175,343.214569 637.616455,340.984375 
	C637.714905,341.502472 637.446045,342.028625 637.099182,342.840698 
	C632.937744,345.656647 628.854248,348.186676 624.369751,350.478455 
	C623.520447,350.130493 623.072266,350.020752 622.624023,349.911011 
	C622.624023,349.911041 622.660339,349.888733 622.644775,349.904633 
z"/>
<path fill="#FFA446" opacity="1.000000" stroke="none" 
	d="
M799.301636,251.022186 
	C799.046692,250.153839 798.764893,248.472900 799.282898,248.172882 
	C802.544983,246.283508 805.984924,244.701050 809.747681,243.018677 
	C809.675903,247.449936 805.175537,246.951767 802.774597,249.015091 
	C801.872498,249.790405 800.696045,250.246460 799.301636,251.022186 
z"/>
<path fill="#FF9F70" opacity="1.000000" stroke="none" 
	d="
M621.110779,217.497131 
	C621.460388,221.397919 621.914490,225.756424 621.966248,230.119690 
	C622.038086,236.184113 621.808228,242.252106 621.440308,248.627441 
	C621.127380,238.609863 621.081665,228.283417 621.110779,217.497131 
z"/>
<path fill="#FF9755" opacity="1.000000" stroke="none" 
	d="
M790.273621,210.973465 
	C786.724854,209.369568 782.998535,207.493347 779.484863,205.324051 
	C780.163696,204.999756 780.629883,204.968536 781.096130,204.937317 
	C784.433167,206.332336 788.349426,206.822815 790.273621,210.973465 
z"/>
<path fill="#FF943F" opacity="1.000000" stroke="none" 
	d="
M722.968445,173.038635 
	C721.975403,172.256897 720.982361,171.475159 720.022095,170.320404 
	C720.996582,170.429276 721.938293,170.911179 723.023071,171.702271 
	C723.166199,172.011459 723.079224,172.491226 723.037903,172.748138 
	C722.996582,173.005051 722.968445,173.038651 722.968445,173.038635 
z"/>
<path fill="#FF943F" opacity="1.000000" stroke="none" 
	d="
M740.470825,284.005737 
	C740.579102,283.335785 740.996094,282.649414 741.754395,281.999023 
	C742.266357,282.604553 742.436951,283.174103 742.634033,283.832123 
	C741.999939,283.885864 741.389832,283.937622 740.470825,284.005737 
z"/>
<path fill="#FF943F" opacity="1.000000" stroke="none" 
	d="
M684.009033,150.991852 
	C683.046997,150.520523 682.076538,150.057083 681.079041,149.243286 
	C681.467529,148.942017 681.883118,148.991104 682.725220,149.351746 
	C683.430542,150.114639 683.709351,150.565948 683.988159,151.017258 
	C683.988159,151.017258 684.000610,150.999725 684.009033,150.991852 
z"/>
<path fill="#FF7002" opacity="1.000000" stroke="none" 
	d="
M661.965576,327.320251 
	C662.449890,326.992645 662.910156,327.009918 663.712280,327.067322 
	C663.599915,327.746948 663.145508,328.386414 662.328979,329.037048 
	C661.958374,328.587158 661.949951,328.126160 661.965576,327.320251 
z"/>
<path fill="#FF7002" opacity="1.000000" stroke="none" 
	d="
M684.336670,151.015381 
	C683.709351,150.565948 683.430542,150.114639 683.031128,149.424927 
	C683.876465,149.554611 684.842407,149.922684 685.939575,150.593445 
	C685.609009,150.935257 685.147095,150.974380 684.336670,151.015381 
z"/>
<path fill="#FF9755" opacity="1.000000" stroke="none" 
	d="
M792.800781,212.520279 
	C792.104370,212.544312 791.279785,212.315262 790.531006,211.809799 
	C791.295349,211.777985 791.984009,212.022598 792.800781,212.520279 
z"/>
<path fill="#FF7002" opacity="1.000000" stroke="none" 
	d="
M780.960938,204.643600 
	C780.629883,204.968536 780.163696,204.999756 779.346313,205.013062 
	C778.995239,204.995163 779.002197,205.001526 778.860107,204.781754 
	C778.411987,204.128418 778.105957,203.694870 777.799927,203.261322 
	C777.799927,203.261307 777.935730,203.087875 778.004517,203.001892 
	C778.990784,203.393906 779.908203,203.871902 780.960938,204.643600 
z"/>
<path fill="#FF9F70" opacity="1.000000" stroke="none" 
	d="
M622.733765,350.134613 
	C623.072266,350.020752 623.520447,350.130493 624.018555,350.556335 
	C623.660095,350.701050 623.251770,350.529633 622.733765,350.134613 
z"/>
<path fill="#FF943F" opacity="1.000000" stroke="none" 
	d="
M758.873169,272.355225 
	C758.662170,272.180420 758.527222,271.960205 758.392334,271.739960 
	C758.525208,271.756775 758.658081,271.773590 758.898438,271.966125 
	C759.005859,272.141907 758.949219,272.309784 758.873169,272.355225 
z"/>
<path fill="#000000" opacity="1.000000" stroke="none" 
	d="
M1556.448975,295.836060 
	C1551.915161,297.207855 1547.816895,298.643341 1543.606201,299.566132 
	C1541.873779,299.945801 1539.867188,298.881592 1538.040527,299.055420 
	C1526.494995,300.153839 1515.622070,296.485718 1505.954956,291.567871 
	C1495.596924,286.298584 1485.993408,278.777679 1480.830933,267.394348 
	C1477.393188,259.814240 1472.726685,252.528046 1470.850220,244.581375 
	C1469.156128,237.407028 1470.501709,229.514069 1470.513062,221.938019 
	C1470.525513,213.579010 1474.125488,206.175293 1477.233765,198.767960 
	C1479.123291,194.265121 1482.238281,190.168350 1485.310181,186.291000 
	C1493.213257,176.315369 1503.454956,169.057190 1515.398315,165.241577 
	C1525.563477,161.994125 1536.343018,160.416580 1547.178833,163.007339 
	C1549.690186,163.607758 1552.521484,163.363098 1554.784424,164.414200 
	C1561.147339,167.369781 1567.654297,170.257263 1573.445068,174.152069 
	C1585.583252,182.315979 1593.727783,194.171387 1598.519409,207.592438 
	C1602.058594,217.505890 1602.699219,228.177704 1601.335571,239.166824 
	C1599.685181,252.467422 1594.311279,263.846405 1586.733887,274.134277 
	C1582.424805,279.984589 1576.020508,284.456055 1570.053101,288.862244 
	C1566.114502,291.770477 1561.275146,293.458740 1556.448975,295.836060 
z"/>
<path fill="#FFFEFD" opacity="1.000000" stroke="none" 
	d="
M624.469360,216.036774 
	C623.671692,209.386581 623.342834,202.731949 623.005493,195.621078 
	C639.315613,195.240234 655.634216,195.352463 671.952942,195.381866 
	C692.940063,195.419678 713.927307,195.391052 734.914490,195.391052 
	C736.707092,195.391052 738.499695,195.391052 740.583984,195.391052 
	C740.583984,202.331223 740.583984,208.750015 740.583984,216.032349 
	C702.035950,216.032349 663.487061,216.032349 624.469360,216.036774 
z"/>
<path fill="#FFFEFE" opacity="1.000000" stroke="none" 
	d="
M623.474182,270.384094 
	C622.986694,263.845795 622.960327,257.221161 622.974060,250.100220 
	C652.632629,249.671478 682.251099,249.744202 711.869568,249.803680 
	C721.327087,249.822678 730.784668,249.806656 740.556763,249.806656 
	C740.556763,256.623108 740.556763,263.024658 740.556763,270.297760 
	C701.646851,270.297760 662.791077,270.297760 623.474182,270.384094 
z"/>
<path fill="#FF9755" opacity="1.000000" stroke="none" 
	d="
M777.514160,203.248474 
	C778.105957,203.694870 778.411987,204.128418 778.864624,204.784882 
	C778.177490,204.725494 777.343689,204.443222 776.509888,204.160950 
	C776.749390,203.852524 776.988892,203.544083 777.514160,203.248474 
z"/>
<path fill="#FF904A" opacity="1.000000" stroke="none" 
	d="
M681.049255,316.192719 
	C680.992126,315.997559 681.443359,315.998016 681.667908,315.990784 
	C681.630432,316.118347 681.368408,316.253113 681.049255,316.192719 
z"/>
<path fill="#FF943F" opacity="1.000000" stroke="none" 
	d="
M736.440796,284.418762 
	C736.530701,284.359772 736.570129,284.590576 736.570129,284.590576 
	C736.570129,284.590576 736.350952,284.477753 736.440796,284.418762 
z"/>
<path fill="#FF943F" opacity="1.000000" stroke="none" 
	d="
M723.012939,172.990662 
	C723.150085,173.147202 723.270874,173.318130 723.391724,173.489029 
	C723.288757,173.440536 723.185791,173.392059 723.025635,173.191101 
	C722.968445,173.038651 722.996582,173.005051 723.012939,172.990662 
z"/>
<path fill="#000000" opacity="1.000000" stroke="none" 
	d="
M772.992310,510.682129 
	C769.220276,520.752319 763.705200,529.144409 754.732178,534.641357 
	C750.560791,537.196716 746.035583,540.115967 741.380310,540.755371 
	C729.567017,542.377930 717.589661,542.806274 705.300354,543.741516 
	C705.300354,512.103638 705.300354,481.393585 705.300354,450.583984 
	C716.458862,450.583984 727.840332,450.070099 739.155701,450.715302 
	C753.007690,451.505157 762.356201,460.255615 769.230469,471.240845 
	C772.139587,475.889679 773.108215,482.059265 773.835144,487.682892 
	C774.594360,493.556488 774.069092,499.606079 773.954834,505.575897 
	C773.924805,507.143768 773.337463,508.700928 772.992310,510.682129 
z"/>
<path fill="#000000" opacity="1.000000" stroke="none" 
	d="
M970.159424,511.998169 
	C958.602478,511.999786 947.470459,511.999786 935.437622,511.999786 
	C941.435059,496.419891 947.226868,481.374268 953.256958,465.709412 
	C958.610840,475.613861 961.797241,485.619324 965.115356,495.609619 
	C966.557190,499.950653 969.264099,503.858154 971.091614,508.094086 
	C971.538208,509.129303 970.785645,510.681824 970.159424,511.998169 
z"/>
<path fill="#000000" opacity="1.000000" stroke="none" 
	d="
M1380.067017,511.999969 
	C1377.084229,511.993500 1374.590942,511.998444 1372.098145,511.965271 
	C1371.800293,511.961334 1371.505127,511.749695 1370.620361,511.405212 
	C1373.742065,503.937561 1377.028687,496.545563 1379.929077,489.004944 
	C1382.822876,481.481018 1385.329468,473.808075 1389.202515,465.907623 
	C1395.173462,481.079773 1401.144409,496.251923 1407.341919,511.999969 
	C1398.067627,511.999969 1389.312134,511.999969 1380.067017,511.999969 
z"/>
</svg>