<svg xmlns="http://www.w3.org/2000/svg" xmlns:xlink="http://www.w3.org/1999/xlink" width="1133" zoomAndPan="magnify" viewBox="0 0 850.5 283.499996" height="377" preserveAspectRatio="xMidYMid meet" version="1.0"><defs><g/><clipPath id="57c5dfef53"><path d="M 91.054688 108.898438 L 157.933594 108.898438 L 157.933594 175.777344 L 91.054688 175.777344 Z M 91.054688 108.898438 " clip-rule="nonzero"/></clipPath><clipPath id="58b6067a6d"><path d="M 124.492188 108.898438 C 106.027344 108.898438 91.054688 123.871094 91.054688 142.335938 C 91.054688 160.804688 106.027344 175.777344 124.492188 175.777344 C 142.960938 175.777344 157.933594 160.804688 157.933594 142.335938 C 157.933594 123.871094 142.960938 108.898438 124.492188 108.898438 Z M 124.492188 108.898438 " clip-rule="nonzero"/></clipPath></defs><g fill="#ffffff" fill-opacity="1"><g transform="translate(32.229922, 225.186977)"><g><path d="M 9.25 -82.578125 C 9.25 -94.285156 11.382812 -105.242188 15.65625 -115.453125 C 19.925781 -125.660156 25.625 -134.5625 32.75 -142.15625 C 40.03125 -149.582031 48.8125 -155.671875 59.09375 -160.421875 C 69.375 -165.171875 80.128906 -167.546875 91.359375 -167.546875 C 104.015625 -167.546875 115.601562 -164.972656 126.125 -159.828125 C 136.644531 -154.691406 145.582031 -147.492188 152.9375 -138.234375 C 160.300781 -128.984375 165.566406 -118.109375 168.734375 -105.609375 L 145 -105.609375 C 140.570312 -118.109375 133.570312 -127.597656 124 -134.078125 C 114.425781 -140.566406 103.546875 -143.8125 91.359375 -143.8125 C 83.453125 -143.8125 75.78125 -142.109375 68.34375 -138.703125 C 60.90625 -135.304688 54.578125 -130.835938 49.359375 -125.296875 C 44.140625 -119.921875 40.023438 -113.59375 37.015625 -106.3125 C 34.015625 -99.039062 32.515625 -91.128906 32.515625 -82.578125 C 32.515625 -74.359375 33.976562 -66.609375 36.90625 -59.328125 C 39.832031 -52.046875 43.90625 -45.640625 49.125 -40.109375 C 54.34375 -34.722656 60.707031 -30.445312 68.21875 -27.28125 C 75.738281 -24.125 83.453125 -22.546875 91.359375 -22.546875 C 104.015625 -22.546875 115.285156 -26.023438 125.171875 -32.984375 C 135.066406 -39.941406 142.148438 -49.671875 146.421875 -62.171875 L 169.921875 -62.171875 C 166.753906 -49.671875 161.453125 -38.632812 154.015625 -29.0625 C 146.578125 -19.5 137.519531 -12.066406 126.84375 -6.765625 C 116.164062 -1.460938 104.335938 1.1875 91.359375 1.1875 C 80.128906 1.1875 69.488281 -0.984375 59.4375 -5.328125 C 49.394531 -9.679688 40.738281 -15.65625 33.46875 -23.25 C 26.34375 -30.84375 20.523438 -39.742188 16.015625 -49.953125 C 11.503906 -60.160156 9.25 -71.035156 9.25 -82.578125 Z M 9.25 -82.578125 "/></g></g></g><g clip-path="url(#57c5dfef53)"><g clip-path="url(#58b6067a6d)"><path fill="#ffffff" d="M 91.054688 108.898438 L 157.933594 108.898438 L 157.933594 175.777344 L 91.054688 175.777344 Z M 91.054688 108.898438 " fill-opacity="1" fill-rule="nonzero"/></g></g><g fill="#ffffff" fill-opacity="1"><g transform="translate(232.211603, 184.500534)"><g><path d="M 35.5625 1.3125 C 29.707031 1.3125 24.457031 -0.0390625 19.8125 -2.75 C 15.164062 -5.457031 11.488281 -9.148438 8.78125 -13.828125 C 6.070312 -18.515625 4.71875 -23.785156 4.71875 -29.640625 C 4.71875 -35.566406 6.070312 -40.851562 8.78125 -45.5 C 11.488281 -50.144531 15.164062 -53.820312 19.8125 -56.53125 C 24.457031 -59.238281 29.707031 -60.59375 35.5625 -60.59375 C 40.25 -60.59375 44.550781 -59.710938 48.46875 -57.953125 C 52.382812 -56.203125 55.710938 -53.734375 58.453125 -50.546875 C 61.203125 -47.367188 63.160156 -43.617188 64.328125 -39.296875 L 55.109375 -39.296875 C 53.347656 -43.109375 50.726562 -46.109375 47.25 -48.296875 C 43.78125 -50.492188 39.882812 -51.59375 35.5625 -51.59375 C 31.46875 -51.59375 27.8125 -50.625 24.59375 -48.6875 C 21.375 -46.75 18.847656 -44.113281 17.015625 -40.78125 C 15.179688 -37.445312 14.265625 -33.734375 14.265625 -29.640625 C 14.265625 -25.546875 15.195312 -21.832031 17.0625 -18.5 C 18.9375 -15.164062 21.484375 -12.53125 24.703125 -10.59375 C 27.921875 -8.65625 31.539062 -7.6875 35.5625 -7.6875 C 39.882812 -7.6875 43.742188 -8.800781 47.140625 -11.03125 C 50.546875 -13.257812 53.164062 -16.351562 55 -20.3125 L 64.4375 -20.3125 C 63.269531 -15.914062 61.296875 -12.109375 58.515625 -8.890625 C 55.734375 -5.671875 52.363281 -3.164062 48.40625 -1.375 C 44.457031 0.414062 40.175781 1.3125 35.5625 1.3125 Z M 35.5625 1.3125 "/></g></g></g><g fill="#ffffff" fill-opacity="1"><g transform="translate(297.417652, 184.500534)"><g><path d="M 36.125 1.3125 C 30.113281 1.3125 24.75 -0.0390625 20.03125 -2.75 C 15.3125 -5.457031 11.578125 -9.132812 8.828125 -13.78125 C 6.085938 -18.425781 4.71875 -23.710938 4.71875 -29.640625 C 4.71875 -35.566406 6.085938 -40.867188 8.828125 -45.546875 C 11.578125 -50.234375 15.3125 -53.910156 20.03125 -56.578125 C 24.75 -59.253906 30.113281 -60.59375 36.125 -60.59375 C 42.125 -60.59375 47.5 -59.238281 52.25 -56.53125 C 57.007812 -53.820312 60.757812 -50.144531 63.5 -45.5 C 66.25 -40.851562 67.625 -35.566406 67.625 -29.640625 C 67.625 -23.710938 66.25 -18.425781 63.5 -13.78125 C 60.757812 -9.132812 57.007812 -5.457031 52.25 -2.75 C 47.5 -0.0390625 42.125 1.3125 36.125 1.3125 Z M 36.125 -7.6875 C 40.363281 -7.6875 44.128906 -8.632812 47.421875 -10.53125 C 50.710938 -12.4375 53.3125 -15.035156 55.21875 -18.328125 C 57.125 -21.628906 58.078125 -25.398438 58.078125 -29.640625 C 58.078125 -33.890625 57.125 -37.660156 55.21875 -40.953125 C 53.3125 -44.242188 50.710938 -46.835938 47.421875 -48.734375 C 44.128906 -50.640625 40.363281 -51.59375 36.125 -51.59375 C 31.875 -51.59375 28.101562 -50.640625 24.8125 -48.734375 C 21.519531 -46.835938 18.9375 -44.242188 17.0625 -40.953125 C 15.195312 -37.660156 14.265625 -33.890625 14.265625 -29.640625 C 14.265625 -25.398438 15.195312 -21.628906 17.0625 -18.328125 C 18.9375 -15.035156 21.535156 -12.4375 24.859375 -10.53125 C 28.191406 -8.632812 31.945312 -7.6875 36.125 -7.6875 Z M 36.125 -7.6875 "/></g></g></g><g fill="#ffffff" fill-opacity="1"><g transform="translate(366.904925, 184.500534)"><g><path d="M 28.21875 1.3125 C 21.113281 1.3125 15.4375 -0.441406 11.1875 -3.953125 C 6.945312 -7.460938 4.71875 -12.21875 4.5 -18.21875 L 13.609375 -18.21875 C 13.828125 -14.632812 15.328125 -11.925781 18.109375 -10.09375 C 20.890625 -8.269531 24.332031 -7.359375 28.4375 -7.359375 C 32.53125 -7.359375 35.875 -8.160156 38.46875 -9.765625 C 41.070312 -11.378906 42.375 -13.648438 42.375 -16.578125 C 42.375 -18.847656 41.660156 -20.601562 40.234375 -21.84375 C 38.804688 -23.09375 36.921875 -24.023438 34.578125 -24.640625 C 32.234375 -25.265625 29.707031 -25.796875 27 -26.234375 C 24.519531 -26.671875 22.015625 -27.203125 19.484375 -27.828125 C 16.960938 -28.453125 14.640625 -29.332031 12.515625 -30.46875 C 10.390625 -31.601562 8.703125 -33.210938 7.453125 -35.296875 C 6.210938 -37.378906 5.59375 -40.101562 5.59375 -43.46875 C 5.59375 -48.519531 7.640625 -52.632812 11.734375 -55.8125 C 15.835938 -59 21.222656 -60.59375 27.890625 -60.59375 C 34.617188 -60.59375 39.992188 -58.925781 44.015625 -55.59375 C 48.046875 -52.269531 50.132812 -47.828125 50.28125 -42.265625 L 41.5 -42.265625 C 41.28125 -45.484375 39.960938 -47.953125 37.546875 -49.671875 C 35.128906 -51.390625 31.875 -52.25 27.78125 -52.25 C 23.75 -52.25 20.539062 -51.460938 18.15625 -49.890625 C 15.78125 -48.316406 14.59375 -46.25 14.59375 -43.6875 C 14.59375 -41.644531 15.269531 -40.070312 16.625 -38.96875 C 17.976562 -37.875 19.769531 -37.050781 22 -36.5 C 24.238281 -35.945312 26.675781 -35.453125 29.3125 -35.015625 C 31.875 -34.648438 34.472656 -34.15625 37.109375 -33.53125 C 39.742188 -32.914062 42.15625 -32.003906 44.34375 -30.796875 C 46.539062 -29.585938 48.296875 -27.882812 49.609375 -25.6875 C 50.929688 -23.488281 51.59375 -20.597656 51.59375 -17.015625 C 51.59375 -11.453125 49.453125 -7.003906 45.171875 -3.671875 C 40.890625 -0.347656 35.238281 1.3125 28.21875 1.3125 Z M 28.21875 1.3125 "/></g></g></g><g fill="#ffffff" fill-opacity="1"><g transform="translate(420.365046, 184.500534)"><g><path d="M 9 -69.59375 L 9 -80.25 L 19.109375 -80.25 L 19.109375 -69.59375 Z M 9.4375 0 L 9.4375 -59.28125 L 18.765625 -59.28125 L 18.765625 0 Z M 9.4375 0 "/></g></g></g><g fill="#ffffff" fill-opacity="1"><g transform="translate(445.612961, 184.500534)"><g><path d="M 64.875 -29.421875 C 64.875 -28.835938 64.835938 -28.269531 64.765625 -27.71875 C 64.691406 -27.164062 64.65625 -26.597656 64.65625 -26.015625 L 14.046875 -26.015625 C 14.785156 -20.523438 17.054688 -16.113281 20.859375 -12.78125 C 24.660156 -9.457031 29.34375 -7.796875 34.90625 -7.796875 C 39.007812 -7.796875 42.671875 -8.707031 45.890625 -10.53125 C 49.109375 -12.363281 51.632812 -14.890625 53.46875 -18.109375 L 63.234375 -18.109375 C 60.742188 -11.960938 57.007812 -7.1875 52.03125 -3.78125 C 47.0625 -0.382812 41.351562 1.3125 34.90625 1.3125 C 29.195312 1.3125 24.054688 -0.0390625 19.484375 -2.75 C 14.910156 -5.457031 11.304688 -9.148438 8.671875 -13.828125 C 6.035156 -18.515625 4.71875 -23.785156 4.71875 -29.640625 C 4.71875 -35.492188 6.035156 -40.757812 8.671875 -45.4375 C 11.304688 -50.125 14.910156 -53.820312 19.484375 -56.53125 C 24.054688 -59.238281 29.195312 -60.59375 34.90625 -60.59375 C 40.90625 -60.59375 46.15625 -59.203125 50.65625 -56.421875 C 55.164062 -53.640625 58.660156 -49.890625 61.140625 -45.171875 C 63.628906 -40.453125 64.875 -35.203125 64.875 -29.421875 Z M 34.90625 -51.703125 C 29.5625 -51.703125 25.039062 -50.144531 21.34375 -47.03125 C 17.65625 -43.925781 15.296875 -39.8125 14.265625 -34.6875 L 55.4375 -34.6875 C 54.488281 -39.957031 52.144531 -44.109375 48.40625 -47.140625 C 44.675781 -50.179688 40.175781 -51.703125 34.90625 -51.703125 Z M 34.90625 -51.703125 "/></g></g></g><g fill="#ffffff" fill-opacity="1"><g transform="translate(512.136318, 184.500534)"><g><path d="M 36.453125 -59.609375 L 41.71875 -59.609375 L 41.71875 -50.71875 L 35.671875 -50.71875 C 30.265625 -50.71875 26.09375 -49.070312 23.15625 -45.78125 C 20.226562 -42.488281 18.765625 -37.953125 18.765625 -32.171875 L 18.765625 0 L 9.4375 0 L 9.4375 -59.28125 L 16.03125 -59.28125 L 17.5625 -50.28125 C 19.6875 -53.28125 22.300781 -55.582031 25.40625 -57.1875 C 28.519531 -58.800781 32.203125 -59.609375 36.453125 -59.609375 Z M 36.453125 -59.609375 "/></g></g></g><g fill="#ffffff" fill-opacity="1"><g transform="translate(551.65498, 184.500534)"><g><path d="M 9.4375 0 L 9.4375 -80.46875 L 18.765625 -80.46875 L 18.765625 0 Z M 9.4375 0 "/></g></g></g><g fill="#ffffff" fill-opacity="1"><g transform="translate(576.902895, 184.500534)"><g><path d="M 59.9375 -59.28125 L 67.40625 -59.28125 L 67.40625 0 L 59.609375 0 L 58.625 -9 C 55.914062 -5.78125 52.566406 -3.253906 48.578125 -1.421875 C 44.585938 0.398438 40.175781 1.3125 35.34375 1.3125 C 29.5625 1.3125 24.347656 -0.0390625 19.703125 -2.75 C 15.054688 -5.457031 11.394531 -9.148438 8.71875 -13.828125 C 6.050781 -18.515625 4.71875 -23.785156 4.71875 -29.640625 C 4.71875 -35.566406 6.050781 -40.851562 8.71875 -45.5 C 11.394531 -50.144531 15.054688 -53.820312 19.703125 -56.53125 C 24.347656 -59.238281 29.5625 -60.59375 35.34375 -60.59375 C 40.25 -60.59375 44.695312 -59.660156 48.6875 -57.796875 C 52.675781 -55.929688 56.023438 -53.390625 58.734375 -50.171875 Z M 36.125 -7.6875 C 40.289062 -7.6875 44.019531 -8.632812 47.3125 -10.53125 C 50.601562 -12.4375 53.179688 -15.054688 55.046875 -18.390625 C 56.921875 -21.722656 57.859375 -25.472656 57.859375 -29.640625 C 57.859375 -33.816406 56.921875 -37.566406 55.046875 -40.890625 C 53.179688 -44.222656 50.601562 -46.835938 47.3125 -48.734375 C 44.019531 -50.640625 40.289062 -51.59375 36.125 -51.59375 C 31.945312 -51.59375 28.210938 -50.625 24.921875 -48.6875 C 21.628906 -46.75 19.03125 -44.132812 17.125 -40.84375 C 15.21875 -37.550781 14.265625 -33.816406 14.265625 -29.640625 C 14.265625 -25.472656 15.21875 -21.738281 17.125 -18.4375 C 19.03125 -15.144531 21.628906 -12.53125 24.921875 -10.59375 C 28.210938 -8.65625 31.945312 -7.6875 36.125 -7.6875 Z M 36.125 -7.6875 "/></g></g></g><g fill="#ffffff" fill-opacity="1"><g transform="translate(650.781174, 184.500534)"><g><path d="M 40.734375 -60.59375 C 46.660156 -60.59375 51.925781 -59.238281 56.53125 -56.53125 C 61.144531 -53.820312 64.75 -50.144531 67.34375 -45.5 C 69.945312 -40.851562 71.25 -35.566406 71.25 -29.640625 C 71.25 -23.785156 69.945312 -18.515625 67.34375 -13.828125 C 64.75 -9.148438 61.144531 -5.457031 56.53125 -2.75 C 51.925781 -0.0390625 46.660156 1.3125 40.734375 1.3125 C 36.046875 1.3125 31.757812 0.453125 27.875 -1.265625 C 24 -2.984375 20.671875 -5.378906 17.890625 -8.453125 L 16.6875 0 L 9.4375 0 L 9.4375 -80.46875 L 18.765625 -80.46875 L 18.765625 -51.8125 C 21.472656 -54.519531 24.691406 -56.660156 28.421875 -58.234375 C 32.160156 -59.804688 36.265625 -60.59375 40.734375 -60.59375 Z M 39.953125 -7.6875 C 44.128906 -7.6875 47.863281 -8.632812 51.15625 -10.53125 C 54.445312 -12.4375 57.023438 -15.054688 58.890625 -18.390625 C 60.765625 -21.722656 61.703125 -25.472656 61.703125 -29.640625 C 61.703125 -33.816406 60.765625 -37.566406 58.890625 -40.890625 C 57.023438 -44.222656 54.445312 -46.835938 51.15625 -48.734375 C 47.863281 -50.640625 44.128906 -51.59375 39.953125 -51.59375 C 35.785156 -51.59375 32.054688 -50.625 28.765625 -48.6875 C 25.472656 -46.75 22.875 -44.132812 20.96875 -40.84375 C 19.0625 -37.550781 18.109375 -33.816406 18.109375 -29.640625 C 18.109375 -25.546875 19.0625 -21.832031 20.96875 -18.5 C 22.875 -15.164062 25.472656 -12.53125 28.765625 -10.59375 C 32.054688 -8.65625 35.785156 -7.6875 39.953125 -7.6875 Z M 39.953125 -7.6875 "/></g></g></g><g fill="#ffffff" fill-opacity="1"><g transform="translate(723.891026, 184.500534)"><g><path d="M 28.21875 1.3125 C 21.113281 1.3125 15.4375 -0.441406 11.1875 -3.953125 C 6.945312 -7.460938 4.71875 -12.21875 4.5 -18.21875 L 13.609375 -18.21875 C 13.828125 -14.632812 15.328125 -11.925781 18.109375 -10.09375 C 20.890625 -8.269531 24.332031 -7.359375 28.4375 -7.359375 C 32.53125 -7.359375 35.875 -8.160156 38.46875 -9.765625 C 41.070312 -11.378906 42.375 -13.648438 42.375 -16.578125 C 42.375 -18.847656 41.660156 -20.601562 40.234375 -21.84375 C 38.804688 -23.09375 36.921875 -24.023438 34.578125 -24.640625 C 32.234375 -25.265625 29.707031 -25.796875 27 -26.234375 C 24.519531 -26.671875 22.015625 -27.203125 19.484375 -27.828125 C 16.960938 -28.453125 14.640625 -29.332031 12.515625 -30.46875 C 10.390625 -31.601562 8.703125 -33.210938 7.453125 -35.296875 C 6.210938 -37.378906 5.59375 -40.101562 5.59375 -43.46875 C 5.59375 -48.519531 7.640625 -52.632812 11.734375 -55.8125 C 15.835938 -59 21.222656 -60.59375 27.890625 -60.59375 C 34.617188 -60.59375 39.992188 -58.925781 44.015625 -55.59375 C 48.046875 -52.269531 50.132812 -47.828125 50.28125 -42.265625 L 41.5 -42.265625 C 41.28125 -45.484375 39.960938 -47.953125 37.546875 -49.671875 C 35.128906 -51.390625 31.875 -52.25 27.78125 -52.25 C 23.75 -52.25 20.539062 -51.460938 18.15625 -49.890625 C 15.78125 -48.316406 14.59375 -46.25 14.59375 -43.6875 C 14.59375 -41.644531 15.269531 -40.070312 16.625 -38.96875 C 17.976562 -37.875 19.769531 -37.050781 22 -36.5 C 24.238281 -35.945312 26.675781 -35.453125 29.3125 -35.015625 C 31.875 -34.648438 34.472656 -34.15625 37.109375 -33.53125 C 39.742188 -32.914062 42.15625 -32.003906 44.34375 -30.796875 C 46.539062 -29.585938 48.296875 -27.882812 49.609375 -25.6875 C 50.929688 -23.488281 51.59375 -20.597656 51.59375 -17.015625 C 51.59375 -11.453125 49.453125 -7.003906 45.171875 -3.671875 C 40.890625 -0.347656 35.238281 1.3125 28.21875 1.3125 Z M 28.21875 1.3125 "/></g></g></g><g fill="#ffffff" fill-opacity="1"><g transform="translate(777.351133, 184.500534)"><g><path d="M 7.46875 0 L 7.46875 -11.640625 L 18.21875 -11.640625 L 18.21875 0 Z M 7.46875 0 "/></g></g></g></svg>