<svg xmlns="http://www.w3.org/2000/svg" xmlns:xlink="http://www.w3.org/1999/xlink" width="1133" zoomAndPan="magnify" viewBox="0 0 850.5 283.499996" height="377" preserveAspectRatio="xMidYMid meet" version="1.0"><defs><g/><clipPath id="fac0ce5180"><path d="M 616.382812 61.398438 L 777 61.398438 L 777 222 L 616.382812 222 Z M 616.382812 61.398438 " clip-rule="nonzero"/></clipPath><clipPath id="2c63ed2047"><path d="M 597 41.390625 L 796 41.390625 L 796 155 L 597 155 Z M 597 41.390625 " clip-rule="nonzero"/></clipPath><clipPath id="62f1efbf4f"><path d="M 557.675781 117 L 834.898438 117 L 834.898438 240 L 557.675781 240 Z M 557.675781 117 " clip-rule="nonzero"/></clipPath><clipPath id="d75b3ba199"><path d="M 622.511719 67.527344 L 770.570312 67.527344 L 770.570312 215.589844 L 622.511719 215.589844 Z M 622.511719 67.527344 " clip-rule="nonzero"/></clipPath><clipPath id="eaf0662cc7"><path d="M 604 49.050781 L 789 49.050781 L 789 154 L 604 154 Z M 604 49.050781 " clip-rule="nonzero"/></clipPath><clipPath id="a435a8acc5"><path d="M 568.296875 119 L 824.515625 119 L 824.515625 233 L 568.296875 233 Z M 568.296875 119 " clip-rule="nonzero"/></clipPath></defs><g fill="#ffffff" fill-opacity="1"><g transform="translate(14.639899, 133.648111)"><g><path d="M 5.5625 -46.96875 L 16.4375 -46.96875 L 16.4375 0 L 5.5625 0 Z M 5.5625 -46.96875 "/></g></g></g><g fill="#ffffff" fill-opacity="1"><g transform="translate(36.645686, 133.648111)"><g><path d="M 15.296875 -38.109375 L 0.265625 -38.109375 L 0.265625 -46.96875 L 41.203125 -46.96875 L 41.203125 -38.109375 L 26.171875 -38.109375 L 26.171875 0 L 15.296875 0 Z M 15.296875 -38.109375 "/></g></g></g><g fill="#ffffff" fill-opacity="1"><g transform="translate(78.107812, 133.648111)"><g><path d="M 21 0.8125 C 17.289062 0.8125 13.703125 0.304688 10.234375 -0.703125 C 6.765625 -1.710938 3.976562 -3.019531 1.875 -4.625 L 5.5625 -12.8125 C 7.582031 -11.332031 9.976562 -10.144531 12.75 -9.25 C 15.519531 -8.363281 18.289062 -7.921875 21.0625 -7.921875 C 24.15625 -7.921875 26.4375 -8.378906 27.90625 -9.296875 C 29.382812 -10.210938 30.125 -11.429688 30.125 -12.953125 C 30.125 -14.066406 29.6875 -14.992188 28.8125 -15.734375 C 27.945312 -16.472656 26.832031 -17.066406 25.46875 -17.515625 C 24.101562 -17.960938 22.253906 -18.453125 19.921875 -18.984375 C 16.347656 -19.835938 13.421875 -20.6875 11.140625 -21.53125 C 8.859375 -22.382812 6.898438 -23.75 5.265625 -25.625 C 3.628906 -27.507812 2.8125 -30.015625 2.8125 -33.140625 C 2.8125 -35.867188 3.550781 -38.335938 5.03125 -40.546875 C 6.507812 -42.765625 8.734375 -44.519531 11.703125 -45.8125 C 14.679688 -47.113281 18.316406 -47.765625 22.609375 -47.765625 C 25.609375 -47.765625 28.535156 -47.40625 31.390625 -46.6875 C 34.253906 -45.976562 36.765625 -44.953125 38.921875 -43.609375 L 35.5625 -35.359375 C 31.21875 -37.816406 26.878906 -39.046875 22.546875 -39.046875 C 19.503906 -39.046875 17.253906 -38.550781 15.796875 -37.5625 C 14.347656 -36.582031 13.625 -35.289062 13.625 -33.6875 C 13.625 -32.070312 14.460938 -30.875 16.140625 -30.09375 C 17.816406 -29.3125 20.375 -28.539062 23.8125 -27.78125 C 27.394531 -26.925781 30.328125 -26.070312 32.609375 -25.21875 C 34.890625 -24.375 36.84375 -23.035156 38.46875 -21.203125 C 40.101562 -19.367188 40.921875 -16.882812 40.921875 -13.75 C 40.921875 -11.070312 40.171875 -8.625 38.671875 -6.40625 C 37.179688 -4.195312 34.9375 -2.441406 31.9375 -1.140625 C 28.9375 0.160156 25.289062 0.8125 21 0.8125 Z M 21 0.8125 "/></g></g></g><g fill="#ffffff" fill-opacity="1"><g transform="translate(120.91174, 133.648111)"><g/></g></g><g fill="#ffffff" fill-opacity="1"><g transform="translate(139.898461, 133.648111)"><g><path d="M 28.046875 0.8125 C 23.253906 0.8125 18.925781 -0.226562 15.0625 -2.3125 C 11.195312 -4.394531 8.15625 -7.28125 5.9375 -10.96875 C 3.71875 -14.65625 2.609375 -18.828125 2.609375 -23.484375 C 2.609375 -28.128906 3.71875 -32.296875 5.9375 -35.984375 C 8.15625 -39.679688 11.195312 -42.566406 15.0625 -44.640625 C 18.925781 -46.722656 23.273438 -47.765625 28.109375 -47.765625 C 32.179688 -47.765625 35.859375 -47.050781 39.140625 -45.625 C 42.429688 -44.195312 45.195312 -42.140625 47.4375 -39.453125 L 40.453125 -33.015625 C 37.273438 -36.679688 33.34375 -38.515625 28.65625 -38.515625 C 25.738281 -38.515625 23.140625 -37.875 20.859375 -36.59375 C 18.578125 -35.320312 16.800781 -33.546875 15.53125 -31.265625 C 14.257812 -28.984375 13.625 -26.390625 13.625 -23.484375 C 13.625 -20.578125 14.257812 -17.984375 15.53125 -15.703125 C 16.800781 -13.421875 18.578125 -11.640625 20.859375 -10.359375 C 23.140625 -9.085938 25.738281 -8.453125 28.65625 -8.453125 C 33.34375 -8.453125 37.273438 -10.304688 40.453125 -14.015625 L 47.4375 -7.578125 C 45.195312 -4.847656 42.421875 -2.765625 39.109375 -1.328125 C 35.804688 0.0976562 32.117188 0.8125 28.046875 0.8125 Z M 28.046875 0.8125 "/></g></g></g><g fill="#ffffff" fill-opacity="1"><g transform="translate(189.07603, 133.648111)"><g><path d="M 35.5 0 L 26.4375 -13.078125 L 16.4375 -13.078125 L 16.4375 0 L 5.5625 0 L 5.5625 -46.96875 L 25.890625 -46.96875 C 30.054688 -46.96875 33.671875 -46.273438 36.734375 -44.890625 C 39.796875 -43.503906 42.15625 -41.535156 43.8125 -38.984375 C 45.46875 -36.429688 46.296875 -33.410156 46.296875 -29.921875 C 46.296875 -26.429688 45.457031 -23.421875 43.78125 -20.890625 C 42.101562 -18.367188 39.722656 -16.4375 36.640625 -15.09375 L 47.171875 0 Z M 35.296875 -29.921875 C 35.296875 -32.554688 34.441406 -34.578125 32.734375 -35.984375 C 31.035156 -37.398438 28.554688 -38.109375 25.296875 -38.109375 L 16.4375 -38.109375 L 16.4375 -21.734375 L 25.296875 -21.734375 C 28.554688 -21.734375 31.035156 -22.445312 32.734375 -23.875 C 34.441406 -25.3125 35.296875 -27.328125 35.296875 -29.921875 Z M 35.296875 -29.921875 "/></g></g></g><g fill="#ffffff" fill-opacity="1"><g transform="translate(238.387803, 133.648111)"><g><path d="M 41.9375 -8.71875 L 41.9375 0 L 5.5625 0 L 5.5625 -46.96875 L 41.0625 -46.96875 L 41.0625 -38.25 L 16.375 -38.25 L 16.375 -28.046875 L 38.171875 -28.046875 L 38.171875 -19.59375 L 16.375 -19.59375 L 16.375 -8.71875 Z M 41.9375 -8.71875 "/></g></g></g><g fill="#ffffff" fill-opacity="1"><g transform="translate(283.405763, 133.648111)"><g><path d="M 36.5 -10.0625 L 14.6875 -10.0625 L 10.53125 0 L -0.609375 0 L 20.328125 -46.96875 L 31.0625 -46.96875 L 52.0625 0 L 40.65625 0 Z M 33.078125 -18.3125 L 25.625 -36.296875 L 18.1875 -18.3125 Z M 33.078125 -18.3125 "/></g></g></g><g fill="#ffffff" fill-opacity="1"><g transform="translate(334.797317, 133.648111)"><g><path d="M 15.296875 -38.109375 L 0.265625 -38.109375 L 0.265625 -46.96875 L 41.203125 -46.96875 L 41.203125 -38.109375 L 26.171875 -38.109375 L 26.171875 0 L 15.296875 0 Z M 15.296875 -38.109375 "/></g></g></g><g fill="#ffffff" fill-opacity="1"><g transform="translate(376.259443, 133.648111)"><g><path d="M 5.5625 -46.96875 L 16.4375 -46.96875 L 16.4375 0 L 5.5625 0 Z M 5.5625 -46.96875 "/></g></g></g><g fill="#ffffff" fill-opacity="1"><g transform="translate(398.26523, 133.648111)"><g><path d="M 50.71875 -46.96875 L 30.390625 0 L 19.65625 0 L -0.609375 -46.96875 L 11.140625 -46.96875 L 25.421875 -13.421875 L 39.921875 -46.96875 Z M 50.71875 -46.96875 "/></g></g></g><g fill="#ffffff" fill-opacity="1"><g transform="translate(448.314982, 133.648111)"><g><path d="M 41.9375 -8.71875 L 41.9375 0 L 5.5625 0 L 5.5625 -46.96875 L 41.0625 -46.96875 L 41.0625 -38.25 L 16.375 -38.25 L 16.375 -28.046875 L 38.171875 -28.046875 L 38.171875 -19.59375 L 16.375 -19.59375 L 16.375 -8.71875 Z M 41.9375 -8.71875 "/></g></g></g><g fill="#ffffff" fill-opacity="1"><g transform="translate(493.332942, 133.648111)"><g><path d="M 21 0.8125 C 17.289062 0.8125 13.703125 0.304688 10.234375 -0.703125 C 6.765625 -1.710938 3.976562 -3.019531 1.875 -4.625 L 5.5625 -12.8125 C 7.582031 -11.332031 9.976562 -10.144531 12.75 -9.25 C 15.519531 -8.363281 18.289062 -7.921875 21.0625 -7.921875 C 24.15625 -7.921875 26.4375 -8.378906 27.90625 -9.296875 C 29.382812 -10.210938 30.125 -11.429688 30.125 -12.953125 C 30.125 -14.066406 29.6875 -14.992188 28.8125 -15.734375 C 27.945312 -16.472656 26.832031 -17.066406 25.46875 -17.515625 C 24.101562 -17.960938 22.253906 -18.453125 19.921875 -18.984375 C 16.347656 -19.835938 13.421875 -20.6875 11.140625 -21.53125 C 8.859375 -22.382812 6.898438 -23.75 5.265625 -25.625 C 3.628906 -27.507812 2.8125 -30.015625 2.8125 -33.140625 C 2.8125 -35.867188 3.550781 -38.335938 5.03125 -40.546875 C 6.507812 -42.765625 8.734375 -44.519531 11.703125 -45.8125 C 14.679688 -47.113281 18.316406 -47.765625 22.609375 -47.765625 C 25.609375 -47.765625 28.535156 -47.40625 31.390625 -46.6875 C 34.253906 -45.976562 36.765625 -44.953125 38.921875 -43.609375 L 35.5625 -35.359375 C 31.21875 -37.816406 26.878906 -39.046875 22.546875 -39.046875 C 19.503906 -39.046875 17.253906 -38.550781 15.796875 -37.5625 C 14.347656 -36.582031 13.625 -35.289062 13.625 -33.6875 C 13.625 -32.070312 14.460938 -30.875 16.140625 -30.09375 C 17.816406 -29.3125 20.375 -28.539062 23.8125 -27.78125 C 27.394531 -26.925781 30.328125 -26.070312 32.609375 -25.21875 C 34.890625 -24.375 36.84375 -23.035156 38.46875 -21.203125 C 40.101562 -19.367188 40.921875 -16.882812 40.921875 -13.75 C 40.921875 -11.070312 40.171875 -8.625 38.671875 -6.40625 C 37.179688 -4.195312 34.9375 -2.441406 31.9375 -1.140625 C 28.9375 0.160156 25.289062 0.8125 21 0.8125 Z M 21 0.8125 "/></g></g></g><g clip-path="url(#fac0ce5180)"><path fill="#ededed" d="M 776.535156 141.476562 C 776.535156 142.789062 776.503906 144.097656 776.441406 145.40625 C 776.375 146.714844 776.28125 148.019531 776.152344 149.324219 C 776.023438 150.628906 775.863281 151.929688 775.671875 153.226562 C 775.476562 154.523438 775.253906 155.8125 775 157.097656 C 774.742188 158.382812 774.457031 159.664062 774.136719 160.933594 C 773.820312 162.207031 773.46875 163.46875 773.089844 164.722656 C 772.707031 165.976562 772.296875 167.21875 771.855469 168.453125 C 771.414062 169.6875 770.941406 170.910156 770.441406 172.121094 C 769.941406 173.332031 769.410156 174.53125 768.847656 175.714844 C 768.289062 176.898438 767.699219 178.070312 767.082031 179.226562 C 766.464844 180.378906 765.816406 181.519531 765.144531 182.644531 C 764.46875 183.769531 763.769531 184.875 763.042969 185.964844 C 762.3125 187.054688 761.558594 188.125 760.777344 189.179688 C 759.996094 190.230469 759.191406 191.265625 758.359375 192.277344 C 757.527344 193.289062 756.671875 194.28125 755.792969 195.253906 C 754.914062 196.222656 754.007812 197.171875 753.082031 198.101562 C 752.15625 199.027344 751.207031 199.929688 750.238281 200.808594 C 749.265625 201.691406 748.273438 202.546875 747.261719 203.378906 C 746.246094 204.207031 745.214844 205.015625 744.160156 205.796875 C 743.109375 206.574219 742.039062 207.332031 740.949219 208.058594 C 739.859375 208.785156 738.75 209.488281 737.628906 210.160156 C 736.503906 210.835938 735.363281 211.480469 734.207031 212.097656 C 733.050781 212.714844 731.882812 213.304688 730.695312 213.867188 C 729.511719 214.425781 728.316406 214.957031 727.105469 215.457031 C 725.894531 215.960938 724.671875 216.429688 723.4375 216.871094 C 722.203125 217.3125 720.960938 217.726562 719.703125 218.105469 C 718.449219 218.484375 717.1875 218.835938 715.917969 219.152344 C 714.644531 219.472656 713.367188 219.757812 712.082031 220.015625 C 710.796875 220.269531 709.507812 220.496094 708.210938 220.6875 C 706.914062 220.878906 705.613281 221.039062 704.308594 221.167969 C 703.003906 221.296875 701.699219 221.394531 700.390625 221.457031 C 699.082031 221.523438 697.769531 221.554688 696.460938 221.554688 C 695.148438 221.554688 693.839844 221.523438 692.53125 221.457031 C 691.222656 221.394531 689.914062 221.296875 688.609375 221.167969 C 687.308594 221.039062 686.007812 220.878906 684.710938 220.6875 C 683.414062 220.496094 682.121094 220.269531 680.835938 220.015625 C 679.550781 219.757812 678.273438 219.472656 677.003906 219.152344 C 675.730469 218.835938 674.46875 218.484375 673.214844 218.105469 C 671.960938 217.726562 670.714844 217.3125 669.484375 216.871094 C 668.25 216.429688 667.027344 215.960938 665.816406 215.457031 C 664.605469 214.957031 663.40625 214.425781 662.222656 213.867188 C 661.039062 213.304688 659.867188 212.714844 658.710938 212.097656 C 657.554688 211.480469 656.417969 210.835938 655.292969 210.160156 C 654.167969 209.488281 653.0625 208.785156 651.972656 208.058594 C 650.882812 207.332031 649.8125 206.574219 648.757812 205.796875 C 647.707031 205.015625 646.671875 204.207031 645.660156 203.378906 C 644.644531 202.546875 643.65625 201.691406 642.683594 200.808594 C 641.710938 199.929688 640.761719 199.027344 639.835938 198.101562 C 638.910156 197.171875 638.007812 196.222656 637.125 195.253906 C 636.246094 194.28125 635.390625 193.289062 634.558594 192.277344 C 633.726562 191.265625 632.921875 190.230469 632.140625 189.179688 C 631.359375 188.125 630.605469 187.054688 629.878906 185.964844 C 629.148438 184.875 628.449219 183.769531 627.777344 182.644531 C 627.101562 181.519531 626.457031 180.378906 625.839844 179.226562 C 625.21875 178.070312 624.632812 176.898438 624.070312 175.714844 C 623.511719 174.53125 622.980469 173.332031 622.476562 172.121094 C 621.976562 170.910156 621.503906 169.6875 621.0625 168.453125 C 620.621094 167.21875 620.210938 165.976562 619.832031 164.722656 C 619.449219 163.46875 619.101562 162.207031 618.78125 160.933594 C 618.464844 159.664062 618.175781 158.382812 617.921875 157.097656 C 617.664062 155.8125 617.441406 154.523438 617.25 153.226562 C 617.058594 151.929688 616.898438 150.628906 616.769531 149.324219 C 616.640625 148.019531 616.542969 146.714844 616.480469 145.40625 C 616.414062 144.097656 616.382812 142.789062 616.382812 141.476562 C 616.382812 140.167969 616.414062 138.855469 616.480469 137.546875 C 616.542969 136.238281 616.640625 134.933594 616.769531 133.628906 C 616.898438 132.324219 617.058594 131.023438 617.25 129.726562 C 617.441406 128.429688 617.664062 127.140625 617.921875 125.855469 C 618.175781 124.570312 618.464844 123.289062 618.78125 122.019531 C 619.101562 120.75 619.449219 119.484375 619.832031 118.230469 C 620.210938 116.976562 620.621094 115.734375 621.0625 114.5 C 621.503906 113.265625 621.976562 112.042969 622.476562 110.832031 C 622.980469 109.621094 623.511719 108.425781 624.070312 107.238281 C 624.632812 106.054688 625.21875 104.882812 625.839844 103.730469 C 626.457031 102.574219 627.101562 101.433594 627.777344 100.308594 C 628.449219 99.183594 629.148438 98.078125 629.878906 96.988281 C 630.605469 95.898438 631.359375 94.828125 632.140625 93.773438 C 632.921875 92.722656 633.726562 91.6875 634.558594 90.675781 C 635.390625 89.664062 636.246094 88.671875 637.125 87.699219 C 638.007812 86.730469 638.910156 85.78125 639.835938 84.855469 C 640.761719 83.925781 641.710938 83.023438 642.683594 82.144531 C 643.65625 81.261719 644.644531 80.40625 645.660156 79.578125 C 646.671875 78.746094 647.707031 77.9375 648.757812 77.15625 C 649.8125 76.378906 650.882812 75.625 651.972656 74.894531 C 653.0625 74.167969 654.167969 73.464844 655.292969 72.792969 C 656.417969 72.117188 657.554688 71.472656 658.710938 70.855469 C 659.867188 70.238281 661.039062 69.648438 662.222656 69.085938 C 663.40625 68.527344 664.605469 67.996094 665.816406 67.496094 C 667.027344 66.992188 668.25 66.523438 669.484375 66.082031 C 670.714844 65.640625 671.960938 65.226562 673.214844 64.847656 C 674.46875 64.46875 675.730469 64.117188 677.003906 63.800781 C 678.273438 63.480469 679.550781 63.195312 680.835938 62.9375 C 682.121094 62.683594 683.414062 62.457031 684.710938 62.265625 C 686.007812 62.074219 687.308594 61.914062 688.609375 61.785156 C 689.914062 61.65625 691.222656 61.558594 692.53125 61.496094 C 693.839844 61.433594 695.148438 61.398438 696.460938 61.398438 C 697.769531 61.398438 699.082031 61.433594 700.390625 61.496094 C 701.699219 61.558594 703.003906 61.65625 704.308594 61.785156 C 705.613281 61.914062 706.914062 62.074219 708.210938 62.265625 C 709.507812 62.457031 710.796875 62.683594 712.082031 62.9375 C 713.367188 63.195312 714.644531 63.480469 715.917969 63.800781 C 717.1875 64.117188 718.449219 64.46875 719.703125 64.847656 C 720.960938 65.226562 722.203125 65.640625 723.4375 66.082031 C 724.671875 66.523438 725.894531 66.992188 727.105469 67.496094 C 728.316406 67.996094 729.511719 68.527344 730.695312 69.085938 C 731.882812 69.648438 733.050781 70.238281 734.207031 70.855469 C 735.363281 71.472656 736.503906 72.117188 737.628906 72.792969 C 738.75 73.464844 739.859375 74.167969 740.949219 74.894531 C 742.039062 75.625 743.109375 76.378906 744.160156 77.15625 C 745.214844 77.9375 746.246094 78.746094 747.261719 79.578125 C 748.273438 80.40625 749.265625 81.261719 750.238281 82.144531 C 751.207031 83.023438 752.15625 83.925781 753.082031 84.855469 C 754.007812 85.78125 754.914062 86.730469 755.792969 87.699219 C 756.671875 88.671875 757.527344 89.664062 758.359375 90.675781 C 759.191406 91.6875 759.996094 92.722656 760.777344 93.773438 C 761.558594 94.828125 762.3125 95.898438 763.042969 96.988281 C 763.769531 98.078125 764.46875 99.183594 765.144531 100.308594 C 765.816406 101.433594 766.464844 102.574219 767.082031 103.730469 C 767.699219 104.882812 768.289062 106.054688 768.847656 107.238281 C 769.410156 108.425781 769.941406 109.621094 770.441406 110.832031 C 770.941406 112.042969 771.414062 113.265625 771.855469 114.5 C 772.296875 115.734375 772.707031 116.976562 773.089844 118.230469 C 773.46875 119.484375 773.820312 120.75 774.136719 122.019531 C 774.457031 123.289062 774.742188 124.570312 775 125.855469 C 775.253906 127.140625 775.476562 128.429688 775.671875 129.726562 C 775.863281 131.023438 776.023438 132.324219 776.152344 133.628906 C 776.28125 134.933594 776.375 136.238281 776.441406 137.546875 C 776.503906 138.855469 776.535156 140.167969 776.535156 141.476562 Z M 776.535156 141.476562 " fill-opacity="1" fill-rule="nonzero"/></g><g clip-path="url(#2c63ed2047)"><path fill="#ededed" d="M 748.804688 99.089844 C 742.335938 99.582031 736.089844 100.347656 730.167969 101.445312 C 730.167969 101.664062 730.222656 101.828125 730.222656 102.046875 C 730.222656 103.144531 729.949219 104.242188 729.511719 105.171875 C 740.804688 111.640625 751.875 120.082031 762.617188 130.714844 C 760.753906 118.875 755.929688 108.023438 748.804688 99.089844 Z M 642.304688 101.445312 L 643.402344 101.0625 C 647.128906 111.3125 651.460938 120.574219 656.394531 128.960938 C 656.886719 128.851562 657.378906 128.796875 657.871094 128.796875 C 659.792969 128.796875 661.492188 129.5625 662.75 130.769531 C 666.367188 127.480469 670.207031 124.410156 674.261719 121.5625 C 674.042969 113.667969 674.480469 105.445312 675.632812 96.894531 C 672.945312 96.128906 670.917969 93.773438 670.589844 90.867188 C 664.285156 90.59375 657.871094 90.757812 651.460938 91.304688 C 648.007812 94.320312 644.992188 97.71875 642.304688 101.445312 Z M 654.859375 88.289062 C 660.175781 87.960938 665.492188 87.90625 670.699219 88.125 C 671.519531 85.109375 674.261719 82.917969 677.550781 82.917969 C 677.714844 82.917969 677.878906 82.917969 678.042969 82.917969 C 678.535156 80.617188 679.140625 78.261719 679.742188 75.847656 C 670.535156 78.261719 662.09375 82.535156 654.859375 88.289062 Z M 687.03125 116.574219 C 697.777344 119.972656 707.914062 124.191406 717.617188 129.070312 C 718.824219 126.824219 721.179688 125.289062 723.867188 125.289062 C 727.757812 125.289062 730.9375 128.46875 730.9375 132.359375 C 730.9375 133.621094 730.609375 134.824219 730.003906 135.8125 C 730.882812 136.359375 731.8125 136.855469 732.691406 137.402344 C 739.871094 141.675781 746.777344 146.335938 753.519531 151.214844 C 751.984375 151.378906 750.449219 151.597656 748.914062 151.761719 C 743.160156 147.652344 737.238281 143.761719 731.101562 140.085938 C 730.003906 139.429688 728.964844 138.828125 727.867188 138.167969 C 726.714844 138.9375 725.347656 139.429688 723.867188 139.429688 C 719.972656 139.429688 716.796875 136.25 716.796875 132.359375 L 716.796875 132.195312 C 706.328125 126.878906 695.308594 122.328125 683.578125 118.820312 L 683.6875 118.546875 C 682.429688 119.3125 681.167969 120.082031 679.90625 120.902344 C 678.921875 121.5625 677.933594 122.21875 676.945312 122.929688 C 677.332031 132.578125 678.757812 141.730469 681.058594 150.554688 C 681.386719 151.816406 681.769531 153.078125 682.097656 154.285156 L 679.25 154.175781 C 678.976562 153.1875 678.703125 152.199219 678.425781 151.214844 C 676.179688 142.773438 674.808594 134.003906 674.316406 124.796875 C 670.808594 127.371094 667.464844 130.113281 664.285156 133.015625 C 664.667969 133.894531 664.945312 134.878906 664.945312 135.921875 C 664.945312 137.511719 664.449219 138.9375 663.574219 140.085938 C 667.191406 145.128906 670.972656 149.734375 675.027344 154.007812 C 673.769531 153.953125 672.453125 153.898438 671.191406 153.84375 C 667.792969 150.117188 664.613281 146.171875 661.546875 141.949219 C 660.449219 142.609375 659.1875 142.992188 657.816406 142.992188 C 656.777344 142.992188 655.789062 142.773438 654.914062 142.390625 C 652.117188 145.460938 649.488281 148.691406 646.910156 152.035156 C 645.867188 151.925781 644.828125 151.816406 643.785156 151.707031 C 646.582031 147.925781 649.542969 144.253906 652.664062 140.800781 C 651.460938 139.539062 650.691406 137.785156 650.691406 135.921875 C 650.691406 133.457031 651.953125 131.316406 653.816406 130.058594 C 649.046875 121.890625 644.828125 112.902344 641.15625 103.035156 C 633.808594 113.777344 629.535156 126.769531 629.535156 140.746094 C 629.535156 143.925781 629.753906 146.992188 630.191406 150.007812 C 617.203125 148.089844 605.964844 145.570312 597.195312 142.71875 L 597.195312 127.644531 L 612.925781 126.054688 C 613.804688 121.121094 615.066406 116.300781 616.765625 111.695312 L 603.9375 102.488281 L 617.039062 79.792969 L 631.453125 86.316406 C 634.632812 82.535156 638.140625 79.027344 641.921875 75.792969 L 635.398438 61.378906 L 658.09375 48.277344 L 667.300781 61.105469 C 671.90625 59.40625 676.726562 58.144531 681.660156 57.265625 L 683.359375 41.425781 L 709.503906 41.425781 L 711.09375 57.15625 C 716.027344 58.035156 720.851562 59.296875 725.457031 60.992188 L 734.71875 48.167969 L 757.410156 61.269531 L 750.886719 75.683594 C 754.671875 78.863281 758.179688 82.371094 761.355469 86.207031 L 775.828125 79.683594 L 788.925781 102.378906 L 776.101562 111.585938 C 777.800781 116.191406 779.0625 121.011719 779.9375 125.945312 L 795.667969 127.535156 L 795.667969 142.609375 C 786.898438 145.515625 775.664062 147.980469 762.671875 149.898438 C 763.109375 146.882812 763.332031 143.761719 763.332031 140.636719 C 763.332031 138.773438 763.277344 136.855469 763.109375 135.042969 C 751.710938 123.316406 739.925781 114.160156 727.867188 107.308594 C 726.605469 108.460938 724.960938 109.117188 723.152344 109.117188 C 720.140625 109.117188 717.507812 107.199219 716.519531 104.515625 C 705.722656 107.527344 695.96875 111.585938 687.03125 116.574219 Z M 682.484375 76.011719 L 682.757812 75.191406 C 687.195312 74.257812 691.746094 73.765625 696.460938 73.765625 C 716.464844 73.765625 734.445312 82.589844 746.722656 96.511719 C 740.75 97.003906 734.992188 97.773438 729.457031 98.757812 C 728.304688 96.457031 725.894531 94.867188 723.152344 94.867188 C 720.414062 94.867188 718.054688 96.402344 716.851562 98.648438 C 711.972656 96.511719 707.09375 94.703125 702.160156 93.277344 C 696.40625 91.578125 690.59375 90.261719 684.730469 89.386719 C 684.511719 86.808594 682.976562 84.617188 680.730469 83.578125 C 681.222656 81.109375 681.824219 78.589844 682.484375 76.011719 Z M 684.347656 92.128906 C 683.523438 94.8125 681.167969 96.785156 678.261719 97.058594 C 677.167969 104.84375 676.726562 112.351562 676.835938 119.644531 C 677.386719 119.257812 677.878906 118.929688 678.425781 118.601562 C 689.445312 111.421875 701.941406 105.773438 715.972656 101.882812 C 715.972656 101.71875 715.972656 101.554688 716.027344 101.390625 C 711.148438 99.253906 706.273438 97.445312 701.339844 95.964844 C 695.746094 94.265625 690.046875 93.003906 684.347656 92.128906 Z M 684.347656 92.128906 " fill-opacity="1" fill-rule="evenodd"/></g><g clip-path="url(#62f1efbf4f)"><path fill="#ededed" d="M 802.683594 117.777344 C 822.964844 123.152344 835.1875 130.113281 835.1875 137.730469 C 835.1875 148.035156 812.769531 157.132812 778.238281 162.78125 C 777.582031 165.136719 776.867188 167.4375 776.046875 169.6875 L 788.871094 178.894531 L 775.828125 201.585938 L 761.414062 195.0625 C 758.234375 198.84375 754.726562 202.355469 750.941406 205.585938 L 757.464844 220.003906 L 734.71875 233.101562 L 725.511719 220.277344 C 720.90625 221.976562 716.082031 223.238281 711.148438 224.113281 L 709.503906 239.84375 L 683.304688 239.84375 L 681.714844 224.113281 C 676.78125 223.238281 671.960938 221.976562 667.355469 220.277344 L 658.148438 233.101562 L 635.507812 220.003906 L 642.03125 205.585938 C 638.25 202.410156 634.742188 198.902344 631.5625 195.0625 L 617.148438 201.585938 L 604.046875 178.894531 L 616.875 169.6875 C 616.050781 167.4375 615.339844 165.136719 614.679688 162.78125 C 580.09375 157.132812 557.675781 148.035156 557.675781 137.730469 C 557.675781 130.113281 569.898438 123.152344 590.179688 117.777344 C 581.464844 121.507812 576.53125 125.726562 576.53125 130.222656 C 576.53125 145.019531 630.191406 157.023438 696.40625 157.023438 C 762.617188 157.023438 816.332031 145.019531 816.332031 130.222656 C 816.332031 125.726562 811.402344 121.507812 802.683594 117.777344 Z M 758.507812 165.464844 C 754.5625 175.386719 748.257812 184.15625 740.308594 191.0625 C 722.988281 186.566406 707.09375 179.660156 693.117188 169.6875 C 693.226562 169.355469 693.335938 169.082031 693.390625 168.753906 C 694.378906 168.753906 695.363281 168.753906 696.40625 168.753906 C 718.769531 168.753906 739.816406 167.546875 758.507812 165.464844 Z M 650.089844 188.816406 C 651.515625 186.730469 653.105469 184.8125 654.804688 183.003906 C 654.089844 181.910156 653.652344 180.648438 653.652344 179.222656 C 653.652344 175.496094 656.722656 172.425781 660.449219 172.425781 C 662.203125 172.425781 663.847656 173.085938 665.054688 174.179688 C 668.339844 171.988281 671.90625 170.015625 675.742188 168.371094 C 662.3125 167.933594 649.488281 167.054688 637.59375 165.792969 C 636.988281 166.78125 636.386719 167.765625 635.839844 168.753906 C 639.292969 176.371094 644.167969 183.113281 650.089844 188.816406 Z M 680.070312 170.015625 C 681.167969 172.480469 683.632812 174.179688 686.539062 174.179688 C 686.703125 174.179688 686.867188 174.179688 687.03125 174.179688 C 692.570312 185.636719 699.804688 196.324219 708.410156 206.410156 C 704.515625 207.121094 700.515625 207.449219 696.460938 207.449219 C 679.632812 207.449219 664.230469 201.203125 652.445312 190.953125 C 653.871094 188.871094 655.40625 186.953125 657.105469 185.144531 C 658.09375 185.691406 659.242188 186.019531 660.503906 186.019531 C 664.230469 186.019531 667.300781 182.949219 667.300781 179.222656 C 667.300781 178.347656 667.136719 177.523438 666.863281 176.8125 C 670.808594 174.125 675.25 171.878906 680.070312 170.015625 Z M 737.789062 193.144531 C 720.90625 188.542969 705.449219 181.691406 691.691406 171.933594 C 691.089844 172.535156 690.429688 173.085938 689.664062 173.414062 C 695.308594 184.921875 702.597656 195.667969 711.421875 205.75 C 721.179688 203.558594 730.167969 199.175781 737.789062 193.144531 Z M 737.789062 193.144531 " fill-opacity="1" fill-rule="evenodd"/></g><g clip-path="url(#d75b3ba199)"><path fill="#2f2f2f" d="M 770.40625 141.476562 C 770.40625 142.6875 770.378906 143.894531 770.320312 145.105469 C 770.257812 146.3125 770.171875 147.519531 770.050781 148.722656 C 769.933594 149.929688 769.785156 151.128906 769.609375 152.328125 C 769.429688 153.523438 769.222656 154.714844 768.988281 155.902344 C 768.75 157.089844 768.484375 158.269531 768.191406 159.445312 C 767.898438 160.617188 767.574219 161.785156 767.222656 162.941406 C 766.871094 164.101562 766.492188 165.25 766.085938 166.386719 C 765.675781 167.527344 765.242188 168.65625 764.777344 169.773438 C 764.316406 170.894531 763.824219 172 763.308594 173.09375 C 762.789062 174.1875 762.246094 175.269531 761.675781 176.335938 C 761.105469 177.402344 760.507812 178.457031 759.886719 179.492188 C 759.265625 180.53125 758.617188 181.554688 757.945312 182.558594 C 757.273438 183.566406 756.574219 184.554688 755.855469 185.527344 C 755.132812 186.5 754.390625 187.453125 753.621094 188.386719 C 752.855469 189.324219 752.0625 190.238281 751.25 191.136719 C 750.4375 192.035156 749.605469 192.910156 748.75 193.765625 C 747.894531 194.621094 747.015625 195.457031 746.121094 196.269531 C 745.222656 197.082031 744.308594 197.871094 743.371094 198.640625 C 742.4375 199.40625 741.480469 200.152344 740.511719 200.871094 C 739.539062 201.59375 738.550781 202.289062 737.542969 202.960938 C 736.535156 203.632812 735.515625 204.28125 734.476562 204.902344 C 733.4375 205.527344 732.386719 206.121094 731.316406 206.691406 C 730.25 207.261719 729.171875 207.808594 728.074219 208.324219 C 726.980469 208.84375 725.875 209.332031 724.757812 209.796875 C 723.640625 210.257812 722.511719 210.695312 721.371094 211.101562 C 720.230469 211.507812 719.082031 211.890625 717.925781 212.242188 C 716.765625 212.59375 715.601562 212.914062 714.425781 213.207031 C 713.253906 213.503906 712.074219 213.769531 710.886719 214.003906 C 709.699219 214.238281 708.507812 214.445312 707.308594 214.625 C 706.113281 214.800781 704.910156 214.949219 703.707031 215.070312 C 702.503906 215.1875 701.296875 215.277344 700.085938 215.335938 C 698.878906 215.394531 697.667969 215.425781 696.457031 215.425781 C 695.25 215.425781 694.039062 215.394531 692.832031 215.335938 C 691.621094 215.277344 690.414062 215.1875 689.210938 215.070312 C 688.007812 214.949219 686.804688 214.800781 685.609375 214.625 C 684.410156 214.445312 683.21875 214.238281 682.03125 214.003906 C 680.84375 213.769531 679.664062 213.503906 678.492188 213.207031 C 677.316406 212.914062 676.152344 212.59375 674.992188 212.242188 C 673.835938 211.890625 672.6875 211.507812 671.546875 211.101562 C 670.40625 210.695312 669.277344 210.257812 668.160156 209.796875 C 667.042969 209.332031 665.9375 208.84375 664.839844 208.324219 C 663.746094 207.808594 662.667969 207.261719 661.601562 206.691406 C 660.53125 206.121094 659.480469 205.527344 658.441406 204.902344 C 657.402344 204.28125 656.382812 203.632812 655.375 202.960938 C 654.367188 202.289062 653.378906 201.59375 652.40625 200.871094 C 651.4375 200.152344 650.480469 199.40625 649.546875 198.640625 C 648.609375 197.871094 647.695312 197.082031 646.796875 196.269531 C 645.902344 195.457031 645.023438 194.621094 644.167969 193.765625 C 643.3125 192.910156 642.480469 192.035156 641.667969 191.136719 C 640.855469 190.238281 640.0625 189.324219 639.296875 188.386719 C 638.527344 187.453125 637.785156 186.5 637.0625 185.527344 C 636.339844 184.554688 635.644531 183.566406 634.972656 182.558594 C 634.300781 181.554688 633.652344 180.53125 633.03125 179.492188 C 632.410156 178.457031 631.8125 177.402344 631.242188 176.335938 C 630.671875 175.269531 630.128906 174.1875 629.609375 173.09375 C 629.09375 172 628.601562 170.894531 628.140625 169.773438 C 627.675781 168.65625 627.242188 167.527344 626.832031 166.386719 C 626.425781 165.25 626.046875 164.101562 625.695312 162.941406 C 625.34375 161.785156 625.019531 160.617188 624.726562 159.445312 C 624.433594 158.269531 624.167969 157.089844 623.929688 155.902344 C 623.695312 154.714844 623.488281 153.523438 623.308594 152.328125 C 623.132812 151.128906 622.984375 149.929688 622.867188 148.722656 C 622.746094 147.519531 622.660156 146.3125 622.597656 145.105469 C 622.539062 143.894531 622.511719 142.6875 622.511719 141.476562 C 622.511719 140.265625 622.539062 139.054688 622.597656 137.847656 C 622.660156 136.636719 622.746094 135.433594 622.867188 134.226562 C 622.984375 133.023438 623.132812 131.824219 623.308594 130.625 C 623.488281 129.429688 623.695312 128.234375 623.929688 127.050781 C 624.167969 125.863281 624.433594 124.683594 624.726562 123.507812 C 625.019531 122.332031 625.34375 121.167969 625.695312 120.007812 C 626.046875 118.851562 626.425781 117.703125 626.832031 116.5625 C 627.242188 115.421875 627.675781 114.296875 628.140625 113.175781 C 628.601562 112.058594 629.09375 110.953125 629.609375 109.859375 C 630.128906 108.765625 630.671875 107.683594 631.242188 106.617188 C 631.8125 105.550781 632.410156 104.496094 633.03125 103.457031 C 633.652344 102.421875 634.300781 101.398438 634.972656 100.390625 C 635.644531 99.386719 636.339844 98.398438 637.0625 97.425781 C 637.785156 96.453125 638.527344 95.5 639.296875 94.5625 C 640.0625 93.628906 640.855469 92.710938 641.667969 91.816406 C 642.480469 90.917969 643.3125 90.042969 644.167969 89.1875 C 645.023438 88.332031 645.902344 87.496094 646.796875 86.683594 C 647.695312 85.871094 648.609375 85.082031 649.546875 84.3125 C 650.480469 83.542969 651.4375 82.800781 652.40625 82.078125 C 653.378906 81.359375 654.367188 80.660156 655.375 79.988281 C 656.382812 79.316406 657.402344 78.671875 658.441406 78.046875 C 659.480469 77.425781 660.53125 76.828125 661.601562 76.257812 C 662.667969 75.6875 663.746094 75.144531 664.839844 74.625 C 665.9375 74.109375 667.042969 73.621094 668.160156 73.15625 C 669.277344 72.691406 670.40625 72.257812 671.546875 71.851562 C 672.6875 71.441406 673.835938 71.0625 674.992188 70.710938 C 676.152344 70.359375 677.316406 70.039062 678.492188 69.742188 C 679.664062 69.449219 680.84375 69.183594 682.03125 68.949219 C 683.21875 68.710938 684.410156 68.503906 685.609375 68.328125 C 686.804688 68.148438 688.007812 68 689.210938 67.882812 C 690.414062 67.765625 691.621094 67.675781 692.832031 67.617188 C 694.039062 67.558594 695.25 67.527344 696.457031 67.527344 C 697.667969 67.527344 698.878906 67.558594 700.085938 67.617188 C 701.296875 67.675781 702.503906 67.765625 703.707031 67.882812 C 704.910156 68 706.113281 68.148438 707.308594 68.328125 C 708.507812 68.503906 709.699219 68.710938 710.886719 68.949219 C 712.074219 69.183594 713.253906 69.449219 714.425781 69.742188 C 715.601562 70.039062 716.765625 70.359375 717.925781 70.710938 C 719.082031 71.0625 720.230469 71.441406 721.371094 71.851562 C 722.511719 72.257812 723.640625 72.691406 724.757812 73.15625 C 725.875 73.621094 726.980469 74.109375 728.074219 74.625 C 729.171875 75.144531 730.25 75.6875 731.316406 76.257812 C 732.386719 76.828125 733.4375 77.425781 734.476562 78.046875 C 735.515625 78.671875 736.535156 79.316406 737.542969 79.988281 C 738.550781 80.660156 739.539062 81.359375 740.511719 82.078125 C 741.480469 82.800781 742.4375 83.542969 743.371094 84.3125 C 744.308594 85.082031 745.222656 85.871094 746.121094 86.683594 C 747.015625 87.496094 747.894531 88.332031 748.75 89.1875 C 749.605469 90.042969 750.4375 90.917969 751.25 91.816406 C 752.0625 92.710938 752.855469 93.628906 753.621094 94.5625 C 754.390625 95.5 755.132812 96.453125 755.855469 97.425781 C 756.574219 98.398438 757.273438 99.386719 757.945312 100.390625 C 758.617188 101.398438 759.265625 102.421875 759.886719 103.457031 C 760.507812 104.496094 761.105469 105.550781 761.675781 106.617188 C 762.246094 107.683594 762.789062 108.765625 763.308594 109.859375 C 763.824219 110.953125 764.316406 112.058594 764.777344 113.175781 C 765.242188 114.296875 765.675781 115.421875 766.085938 116.5625 C 766.492188 117.703125 766.871094 118.851562 767.222656 120.007812 C 767.574219 121.167969 767.898438 122.332031 768.191406 123.507812 C 768.484375 124.683594 768.75 125.863281 768.988281 127.050781 C 769.222656 128.234375 769.429688 129.429688 769.609375 130.625 C 769.785156 131.824219 769.933594 133.023438 770.050781 134.226562 C 770.171875 135.433594 770.257812 136.636719 770.320312 137.847656 C 770.378906 139.054688 770.40625 140.265625 770.40625 141.476562 Z M 770.40625 141.476562 " fill-opacity="1" fill-rule="nonzero"/></g><g clip-path="url(#eaf0662cc7)"><path fill="#960202" d="M 744.804688 102.328125 C 738.832031 102.785156 733.0625 103.492188 727.59375 104.507812 C 727.59375 104.707031 727.644531 104.859375 727.644531 105.0625 C 727.644531 106.074219 727.390625 107.085938 726.988281 107.949219 C 737.414062 113.921875 747.640625 121.714844 757.5625 131.535156 C 755.839844 120.601562 751.386719 110.582031 744.804688 102.328125 Z M 646.453125 104.507812 L 647.464844 104.152344 C 650.90625 113.617188 654.90625 122.171875 659.460938 129.917969 C 659.917969 129.816406 660.371094 129.765625 660.828125 129.765625 C 662.597656 129.765625 664.167969 130.472656 665.332031 131.585938 C 668.671875 128.550781 672.21875 125.714844 675.964844 123.082031 C 675.761719 115.792969 676.164062 108.199219 677.226562 100.304688 C 674.746094 99.597656 672.875 97.417969 672.570312 94.738281 C 666.75 94.484375 660.828125 94.636719 654.90625 95.140625 C 651.714844 97.925781 648.933594 101.0625 646.453125 104.507812 Z M 658.042969 92.355469 C 662.953125 92.054688 667.863281 92.003906 672.671875 92.207031 C 673.433594 89.421875 675.964844 87.398438 679 87.398438 C 679.152344 87.398438 679.304688 87.398438 679.457031 87.398438 C 679.910156 85.269531 680.46875 83.09375 681.023438 80.867188 C 672.519531 83.09375 664.726562 87.042969 658.042969 92.355469 Z M 687.757812 118.476562 C 697.679688 121.613281 707.042969 125.511719 716.003906 130.019531 C 717.117188 127.941406 719.292969 126.523438 721.773438 126.523438 C 725.367188 126.523438 728.304688 129.460938 728.304688 133.054688 C 728.304688 134.21875 728 135.332031 727.441406 136.246094 C 728.253906 136.75 729.113281 137.207031 729.921875 137.710938 C 736.554688 141.660156 742.933594 145.964844 749.15625 150.46875 C 747.742188 150.621094 746.324219 150.824219 744.90625 150.972656 C 739.589844 147.179688 734.125 143.582031 728.453125 140.191406 C 727.441406 139.585938 726.480469 139.027344 725.46875 138.421875 C 724.40625 139.128906 723.140625 139.585938 721.773438 139.585938 C 718.179688 139.585938 715.242188 136.648438 715.242188 133.054688 L 715.242188 132.902344 C 705.574219 127.992188 695.402344 123.792969 684.566406 120.550781 L 684.667969 120.300781 C 683.503906 121.007812 682.339844 121.714844 681.175781 122.476562 C 680.265625 123.082031 679.355469 123.691406 678.441406 124.347656 C 678.796875 133.257812 680.113281 141.710938 682.238281 149.859375 C 682.542969 151.023438 682.898438 152.1875 683.203125 153.304688 L 680.570312 153.203125 C 680.316406 152.289062 680.0625 151.378906 679.808594 150.46875 C 677.734375 142.671875 676.46875 134.574219 676.011719 126.070312 C 672.773438 128.449219 669.6875 130.980469 666.75 133.664062 C 667.105469 134.472656 667.359375 135.382812 667.359375 136.34375 C 667.359375 137.8125 666.902344 139.128906 666.09375 140.191406 C 669.433594 144.847656 672.925781 149.101562 676.671875 153.050781 C 675.507812 153 674.292969 152.949219 673.128906 152.898438 C 669.988281 149.457031 667.054688 145.8125 664.21875 141.914062 C 663.207031 142.519531 662.042969 142.875 660.777344 142.875 C 659.816406 142.875 658.902344 142.671875 658.09375 142.320312 C 655.511719 145.152344 653.082031 148.140625 650.703125 151.226562 C 649.742188 151.125 648.78125 151.023438 647.820312 150.921875 C 650.398438 147.429688 653.132812 144.039062 656.019531 140.851562 C 654.90625 139.6875 654.195312 138.066406 654.195312 136.34375 C 654.195312 134.066406 655.359375 132.09375 657.082031 130.929688 C 652.679688 123.386719 648.78125 115.085938 645.390625 105.972656 C 638.605469 115.894531 634.65625 127.890625 634.65625 140.800781 C 634.65625 143.734375 634.859375 146.570312 635.265625 149.355469 C 623.269531 147.582031 612.890625 145.253906 604.792969 142.621094 L 604.792969 128.703125 L 619.320312 127.234375 C 620.128906 122.679688 621.292969 118.222656 622.863281 113.972656 L 611.019531 105.46875 L 623.117188 84.511719 L 636.429688 90.535156 C 639.367188 87.042969 642.605469 83.800781 646.097656 80.816406 L 640.074219 67.503906 L 661.03125 55.40625 L 669.535156 67.25 C 673.785156 65.679688 678.242188 64.515625 682.796875 63.707031 L 684.367188 49.078125 L 708.511719 49.078125 L 709.980469 63.605469 C 714.535156 64.414062 718.988281 65.578125 723.242188 67.148438 L 731.796875 55.304688 L 752.753906 67.402344 L 746.726562 80.714844 C 750.222656 83.652344 753.460938 86.890625 756.398438 90.433594 L 769.761719 84.410156 L 781.859375 105.367188 L 770.011719 113.871094 C 771.582031 118.121094 772.746094 122.578125 773.554688 127.132812 L 788.085938 128.601562 L 788.085938 142.519531 C 779.984375 145.203125 769.609375 147.480469 757.613281 149.253906 C 758.015625 146.46875 758.21875 143.582031 758.21875 140.699219 C 758.21875 138.976562 758.167969 137.207031 758.015625 135.535156 C 747.488281 124.703125 736.605469 116.25 725.46875 109.921875 C 724.304688 110.984375 722.785156 111.59375 721.113281 111.59375 C 718.332031 111.59375 715.902344 109.820312 714.992188 107.339844 C 705.019531 110.125 696.007812 113.871094 687.757812 118.476562 Z M 683.554688 81.019531 L 683.808594 80.257812 C 687.910156 79.398438 692.109375 78.941406 696.464844 78.941406 C 714.941406 78.941406 731.542969 87.09375 742.882812 99.949219 C 737.363281 100.40625 732.050781 101.113281 726.9375 102.027344 C 725.875 99.898438 723.644531 98.433594 721.113281 98.433594 C 718.585938 98.433594 716.40625 99.847656 715.292969 101.925781 C 710.789062 99.949219 706.285156 98.28125 701.726562 96.964844 C 696.414062 95.394531 691.046875 94.179688 685.632812 93.371094 C 685.429688 90.992188 684.011719 88.964844 681.9375 88.003906 C 682.390625 85.726562 682.949219 83.398438 683.554688 81.019531 Z M 685.277344 95.902344 C 684.515625 98.382812 682.339844 100.203125 679.65625 100.457031 C 678.644531 107.644531 678.242188 114.578125 678.34375 121.3125 C 678.847656 120.957031 679.304688 120.652344 679.808594 120.351562 C 689.984375 113.71875 701.527344 108.503906 714.484375 104.910156 C 714.484375 104.757812 714.484375 104.605469 714.535156 104.457031 C 710.03125 102.480469 705.523438 100.8125 700.96875 99.445312 C 695.804688 97.875 690.542969 96.710938 685.277344 95.902344 Z M 685.277344 95.902344 " fill-opacity="1" fill-rule="evenodd"/></g><g clip-path="url(#a435a8acc5)"><path fill="#960202" d="M 794.5625 119.589844 C 813.292969 124.550781 824.582031 130.980469 824.582031 138.015625 C 824.582031 147.53125 803.878906 155.933594 771.988281 161.148438 C 771.378906 163.324219 770.722656 165.453125 769.960938 167.527344 L 781.808594 176.03125 L 769.761719 196.988281 L 756.449219 190.964844 C 753.511719 194.457031 750.273438 197.695312 746.777344 200.683594 L 752.804688 213.996094 L 731.796875 226.09375 L 723.292969 214.25 C 719.039062 215.816406 714.585938 216.980469 710.03125 217.792969 L 708.511719 232.320312 L 684.316406 232.320312 L 682.847656 217.792969 C 678.292969 216.980469 673.835938 215.816406 669.585938 214.25 L 661.082031 226.09375 L 640.175781 213.996094 L 646.199219 200.683594 C 642.707031 197.746094 639.464844 194.507812 636.53125 190.964844 L 623.21875 196.988281 L 611.121094 176.03125 L 622.964844 167.527344 C 622.207031 165.453125 621.546875 163.324219 620.941406 161.148438 C 589 155.933594 568.296875 147.53125 568.296875 138.015625 C 568.296875 130.980469 579.585938 124.550781 598.3125 119.589844 C 590.265625 123.03125 585.707031 126.929688 585.707031 131.082031 C 585.707031 144.75 635.265625 155.832031 696.414062 155.832031 C 757.5625 155.832031 807.167969 144.75 807.167969 131.082031 C 807.167969 126.929688 802.613281 123.03125 794.5625 119.589844 Z M 753.765625 163.628906 C 750.121094 172.792969 744.296875 180.890625 736.957031 187.269531 C 720.964844 183.117188 706.285156 176.738281 693.375 167.527344 C 693.476562 167.222656 693.578125 166.96875 693.628906 166.667969 C 694.539062 166.667969 695.453125 166.667969 696.414062 166.667969 C 717.066406 166.667969 736.503906 165.550781 753.765625 163.628906 Z M 653.640625 185.191406 C 654.957031 183.269531 656.425781 181.496094 657.992188 179.828125 C 657.335938 178.816406 656.929688 177.652344 656.929688 176.335938 C 656.929688 172.890625 659.765625 170.058594 663.207031 170.058594 C 664.828125 170.058594 666.34375 170.664062 667.457031 171.675781 C 670.496094 169.652344 673.785156 167.832031 677.328125 166.3125 C 664.929688 165.90625 653.082031 165.097656 642.097656 163.933594 C 641.542969 164.84375 640.984375 165.753906 640.480469 166.667969 C 643.667969 173.703125 648.171875 179.929688 653.640625 185.191406 Z M 681.328125 167.832031 C 682.339844 170.109375 684.617188 171.675781 687.300781 171.675781 C 687.453125 171.675781 687.605469 171.675781 687.757812 171.675781 C 692.871094 182.257812 699.550781 192.128906 707.5 201.441406 C 703.90625 202.101562 700.210938 202.402344 696.464844 202.402344 C 680.921875 202.402344 666.699219 196.632812 655.816406 187.167969 C 657.132812 185.242188 658.550781 183.472656 660.117188 181.800781 C 661.03125 182.308594 662.09375 182.609375 663.257812 182.609375 C 666.699219 182.609375 669.535156 179.777344 669.535156 176.335938 C 669.535156 175.523438 669.382812 174.765625 669.128906 174.105469 C 672.773438 171.625 676.875 169.550781 681.328125 167.832031 Z M 734.628906 189.191406 C 719.039062 184.941406 704.765625 178.613281 692.058594 169.601562 C 691.503906 170.160156 690.894531 170.664062 690.1875 170.96875 C 695.402344 181.597656 702.132812 191.519531 710.28125 200.835938 C 719.292969 198.808594 727.59375 194.761719 734.628906 189.191406 Z M 734.628906 189.191406 " fill-opacity="1" fill-rule="evenodd"/></g><g fill="#ffffff" fill-opacity="1"><g transform="translate(340.648549, 205.359917)"><g><path d="M 16.78125 -42.671875 L 0.265625 -42.671875 L 0.265625 -46.96875 L 38.25 -46.96875 L 38.25 -42.671875 L 21.734375 -42.671875 L 21.734375 0 L 16.78125 0 Z M 16.78125 -42.671875 "/></g></g></g><g fill="#ffffff" fill-opacity="1"><g transform="translate(379.146987, 205.359917)"><g><path d="M 40.859375 -4.296875 L 40.859375 0 L 7.65625 0 L 7.65625 -46.96875 L 39.859375 -46.96875 L 39.859375 -42.671875 L 12.609375 -42.671875 L 12.609375 -25.96875 L 36.90625 -25.96875 L 36.90625 -21.734375 L 12.609375 -21.734375 L 12.609375 -4.296875 Z M 40.859375 -4.296875 "/></g></g></g><g fill="#ffffff" fill-opacity="1"><g transform="translate(424.017115, 205.359917)"><g><path d="M 37.109375 -12.546875 L 10.9375 -12.546875 L 5.296875 0 L 0.140625 0 L 21.609375 -46.96875 L 26.5 -46.96875 L 47.96875 0 L 42.734375 0 Z M 35.296875 -16.578125 L 24.015625 -41.796875 L 12.75 -16.578125 Z M 35.296875 -16.578125 "/></g></g></g><g fill="#ffffff" fill-opacity="1"><g transform="translate(472.106625, 205.359917)"><g><path d="M 56.421875 -46.96875 L 56.421875 0 L 51.65625 0 L 51.65625 -37.578125 L 33.21875 -5.96875 L 30.859375 -5.96875 L 12.40625 -37.375 L 12.40625 0 L 7.65625 0 L 7.65625 -46.96875 L 11.734375 -46.96875 L 32.140625 -12.140625 L 52.328125 -46.96875 Z M 56.421875 -46.96875 "/></g></g></g></svg>